<?xml version="1.0" standalone="no"?>
<!DOCTYPE svg PUBLIC "-//W3C//DTD SVG 20010904//EN"
 "http://www.w3.org/TR/2001/REC-SVG-20010904/DTD/svg10.dtd">
<svg version="1.0" xmlns="http://www.w3.org/2000/svg"
 width="554.000000pt" height="554.000000pt" viewBox="0 0 554.000000 554.000000"
 preserveAspectRatio="xMidYMid meet">

<g transform="translate(0.000000,554.000000) scale(0.100000,-0.100000)"
fill="#000000" stroke="none">
<path d="M0 2770 l0 -2770 210 0 c116 0 210 2 210 5 0 2 -5 15 -11 29 -18 38
9 68 60 70 41 1 41 1 35 -32 -7 -38 10 -65 37 -57 10 3 27 0 38 -7 16 -10 34
-10 91 0 82 14 226 16 195 2 -18 -8 -17 -9 8 -9 18 -1 26 3 21 10 -5 8 -1 8
14 0 14 -7 111 -11 281 -11 243 0 260 1 265 18 4 10 22 45 41 76 19 32 32 63
28 69 -4 6 -1 7 6 3 8 -6 11 -2 9 10 -2 11 2 18 8 17 17 -3 105 157 98 179 -3
10 -10 15 -16 12 -12 -8 -9 1 13 47 13 25 57 54 68 43 3 -3 1 -8 -4 -12 -29
-20 -72 -104 -46 -87 12 7 71 93 71 103 0 4 11 20 25 35 14 15 23 27 20 27 -5
0 13 36 65 124 14 24 56 101 94 172 37 71 85 158 105 194 20 36 47 92 60 125
39 97 45 88 9 -12 -18 -50 -43 -103 -54 -116 -12 -14 -25 -39 -29 -56 -3 -17
-14 -35 -23 -41 -9 -5 -14 -10 -9 -10 13 0 -231 -446 -252 -460 -5 -3 -16 -21
-26 -40 -10 -18 -23 -40 -31 -47 -7 -7 -27 -39 -45 -70 -18 -32 -39 -64 -46
-71 -7 -7 -13 -17 -13 -22 0 -4 -16 -32 -35 -61 -19 -30 -35 -61 -35 -70 0 -9
-6 -22 -14 -28 -8 -6 -16 -21 -19 -31 -5 -20 5 -20 959 -20 1038 0 982 -3 955
48 -15 28 -43 141 -36 151 3 5 1 11 -4 13 -4 1 -5 12 0 23 7 18 8 18 10 -5 3
-40 4 -45 11 -55 3 -5 11 -37 18 -69 7 -33 17 -70 23 -83 l10 -23 939 0 c619
0 938 3 938 10 0 6 10 10 23 10 17 0 19 2 7 10 -12 8 -12 14 3 45 9 20 17 40
17 45 0 5 5 21 12 37 6 15 12 31 12 35 1 3 4 10 9 14 4 4 7 20 7 36 0 20 5 28
17 28 13 0 14 3 5 12 -15 15 -16 45 -1 54 7 4 25 7 40 6 35 -1 36 6 5 36 -28
25 -41 29 -32 7 3 -8 1 -15 -3 -15 -15 0 -18 81 -3 89 15 8 6 41 -12 41 -15 1
-48 68 -36 75 6 4 10 0 10 -8 0 -29 24 -34 49 -10 13 13 19 23 12 23 -7 0 -10
4 -7 9 4 5 0 12 -6 15 -7 3 -1 4 14 3 16 -3 29 1 32 9 8 20 24 17 31 -5 3 -11
12 -22 20 -25 13 -5 15 32 14 267 0 150 -3 267 -5 260 -4 -9 -11 -9 -30 -1
-13 6 -24 15 -24 20 0 4 -7 8 -15 8 -8 0 -15 4 -15 10 0 5 6 7 14 4 7 -3 16 1
19 9 3 10 14 13 31 10 23 -5 26 -2 26 22 0 27 -1 27 -18 12 -20 -19 -52 -23
-52 -7 0 6 4 10 8 10 4 0 8 12 7 28 0 22 5 28 28 30 l27 3 0 170 c0 150 -2
175 -20 212 -11 23 -16 43 -11 45 19 6 -2 42 -25 42 -12 0 -25 4 -28 9 -3 4 7
6 22 3 l27 -4 -27 26 c-30 29 -40 58 -12 35 14 -11 18 -11 29 4 7 9 20 17 29
17 10 0 16 8 16 25 0 16 -6 25 -15 25 -8 0 -24 14 -35 32 -10 17 -32 37 -47
44 l-28 13 28 -5 c33 -7 38 19 7 36 -11 6 -20 20 -20 31 0 12 -10 23 -26 29
-14 6 -23 14 -19 19 3 5 -9 11 -27 13 -23 2 -33 8 -33 20 0 9 -4 20 -8 24 -13
14 -7 34 11 34 24 0 44 67 32 109 -8 29 1 43 15 21 11 -18 23 -11 18 10 -3 11
0 20 6 20 6 0 12 -4 12 -10 1 -5 2 -16 3 -22 1 -7 -5 -24 -13 -37 l-15 -24 39
7 c22 4 45 8 52 8 7 1 10 5 7 10 -3 5 -9 6 -13 3 -5 -2 -17 2 -27 10 -18 13
-17 14 11 12 21 -1 30 3 33 16 2 11 -3 17 -13 17 -11 0 -15 5 -11 15 3 9 0 15
-8 15 -8 0 -13 12 -14 30 -1 25 3 30 24 30 13 0 24 -5 24 -11 0 -5 -5 -7 -11
-3 -7 4 -10 1 -7 -7 3 -8 12 -15 21 -17 11 -2 15 1 12 11 -3 7 0 19 7 25 11 9
14 5 16 -15 3 -43 12 -39 12 5 0 32 -4 42 -16 42 -18 0 -49 28 -41 37 3 3 13
-2 22 -11 9 -9 21 -14 26 -11 11 7 12 46 2 43 -5 0 -16 2 -26 7 -13 5 -15 11
-7 21 7 7 18 10 26 7 17 -6 19 18 2 35 -7 7 -21 12 -33 12 -30 0 -92 24 -114
44 -11 10 -25 15 -30 11 -11 -6 -12 -5 -16 31 -1 12 -5 26 -9 32 -8 14 11 25
26 16 20 -13 48 -13 121 -2 l67 11 0 214 0 213 -25 -6 c-13 -3 -50 -7 -81 -7
-34 -1 -59 -7 -61 -14 -3 -7 -10 -10 -17 -7 -7 3 -23 1 -36 -4 -30 -11 -99 8
-112 31 -13 24 -28 21 -23 -5 8 -40 -45 -51 -96 -21 -21 13 -27 22 -23 39 3
12 -1 28 -11 38 -15 15 -15 16 7 18 13 0 28 2 35 2 7 1 18 7 25 15 11 11 5 13
-37 8 -27 -2 -56 -3 -63 0 -24 9 -10 38 40 82 42 39 54 45 88 43 22 -2 52 3
67 11 39 19 107 21 135 4 21 -13 66 -15 161 -9 l27 2 0 95 c0 88 -1 95 -20 95
-11 0 -20 5 -20 10 0 6 -9 10 -21 10 -11 0 -33 8 -47 19 -15 10 -40 21 -57 24
-52 9 -119 28 -138 38 -12 6 -23 6 -35 -1 -16 -11 -15 -11 1 -6 12 4 17 2 14
-6 -2 -8 -18 -12 -38 -10 -41 3 -49 10 -29 25 8 7 22 21 30 31 14 18 13 19 -2
13 -13 -5 -18 -1 -18 13 0 23 10 26 28 8 10 -10 14 -8 19 10 3 15 11 21 20 18
8 -3 17 -6 19 -6 2 0 4 -4 4 -10 0 -5 -7 -10 -15 -10 -8 0 -15 -6 -15 -14 0
-21 115 -58 178 -57 30 0 63 -4 73 -10 13 -7 25 -7 37 0 16 10 16 10 0 11 -10
0 -18 5 -18 11 0 7 10 9 26 6 21 -4 25 -1 22 17 -2 17 -9 20 -37 18 -22 -2
-31 0 -26 7 3 6 -1 11 -9 11 -9 0 -16 5 -16 10 0 6 -15 10 -34 10 -18 0 -39 7
-46 15 -15 18 -105 22 -94 4 5 -9 -1 -10 -22 -5 -73 18 -93 59 -53 110 12 15
22 39 22 54 2 26 30 62 49 62 5 0 6 5 2 11 -10 17 18 61 36 56 12 -3 16 4 17
31 2 59 28 75 127 76 l86 0 0 63 c0 45 -4 63 -13 63 -7 0 -22 7 -33 15 -18 15
-17 16 14 10 32 -7 33 -6 30 22 -3 24 -7 28 -33 26 -22 -2 -26 0 -15 7 8 5 23
10 33 10 9 0 17 5 17 10 0 6 -5 10 -10 10 -7 0 -7 7 0 21 13 24 4 41 -10 19
-5 -8 -32 -17 -62 -20 -43 -4 -53 -8 -51 -23 0 -11 -4 -16 -12 -13 -66 25 -96
28 -172 17 -69 -10 -83 -9 -112 5 -25 12 -72 18 -194 21 -89 3 -166 9 -172 14
-5 5 -23 9 -40 9 -16 0 -37 5 -45 10 -13 8 -12 10 3 10 9 0 17 5 17 10 0 6 -8
10 -17 10 -10 0 -40 8 -67 18 -51 18 -72 41 -39 43 16 0 16 1 -2 9 -23 10 -14
13 30 10 43 -2 66 -10 60 -21 -4 -5 1 -9 10 -9 12 0 15 5 11 16 -4 10 1 22 11
29 15 11 14 13 -13 19 -16 3 -51 8 -79 10 -27 2 -50 9 -50 14 0 6 -3 14 -8 18
-9 9 42 64 60 64 7 0 19 12 27 28 8 15 34 49 59 76 44 47 52 76 20 76 -13 0
-13 -3 -3 -15 10 -12 10 -15 -4 -15 -9 0 -16 -6 -16 -12 0 -20 -45 -68 -64
-68 -9 0 -16 -7 -16 -15 0 -8 -3 -15 -7 -15 -15 0 -35 17 -31 26 5 14 -44 17
-53 3 -6 -10 -11 -10 -24 1 -12 10 -19 10 -27 2 -17 -17 -28 -15 -28 6 0 14
-2 15 -10 2 -5 -8 -12 -12 -15 -8 -8 7 29 43 68 68 16 10 24 21 18 24 -5 4 -8
16 -6 28 4 21 4 21 -20 -2 -14 -13 -25 -29 -25 -36 0 -7 -15 -17 -32 -23 -27
-10 -30 -14 -18 -22 11 -8 7 -9 -15 -3 -16 4 -44 7 -62 6 -18 -1 -35 3 -38 8
-3 6 5 10 19 10 14 0 26 4 26 9 0 5 18 12 41 16 34 6 43 13 55 40 7 19 19 37
25 41 7 4 -1 12 -20 21 -25 13 -34 13 -46 3 -10 -9 -15 -9 -15 -1 0 6 5 11 12
11 6 0 8 3 5 7 -4 4 -31 7 -60 8 -48 0 -76 -11 -77 -32 -1 -4 -9 -18 -19 -31
-22 -25 -53 -21 -44 6 4 9 2 14 -2 10 -5 -5 -13 2 -20 15 -8 15 -8 24 -1 29
16 11 28 10 21 -2 -9 -14 1 -13 17 3 31 28 52 34 89 24 28 -7 44 -5 70 8 31
17 33 16 46 -1 7 -10 13 -13 13 -7 0 7 9 15 21 18 29 10 18 28 -22 37 -45 9
-76 1 -82 -23 -5 -19 -37 -27 -37 -9 0 5 7 7 15 4 8 -4 15 -2 15 4 0 12 -24
22 -52 22 -16 0 -19 5 -16 25 4 21 3 23 -14 14 -21 -11 -53 6 -42 22 3 5 1 9
-4 9 -14 0 -62 44 -62 58 0 6 -13 21 -30 33 -33 25 -32 39 3 33 20 -4 21 -4 2
5 -11 5 -41 10 -67 10 -37 1 -50 -3 -62 -21 -18 -25 -6 -48 16 -30 10 8 23 1
52 -28 22 -22 52 -44 67 -50 25 -11 26 -14 17 -40 -14 -43 -34 -56 -61 -41
-34 18 -47 55 -32 85 12 22 11 24 -3 19 -10 -3 -22 -10 -28 -14 -6 -5 -23 -3
-37 4 -20 9 -25 17 -20 32 5 18 5 18 -11 2 -19 -19 -36 -22 -36 -7 0 6 5 10
11 10 5 0 7 5 4 10 -9 14 -41 -5 -56 -32 -8 -15 -8 -22 0 -28 7 -3 9 -14 5
-23 -8 -22 19 -23 36 -2 25 30 72 10 83 -35 5 -19 0 -33 -18 -54 -14 -16 -25
-33 -25 -38 0 -5 -4 -7 -9 -4 -5 3 -14 0 -20 -8 -17 -20 11 -28 37 -10 20 14
57 18 102 11 14 -3 30 -5 35 -6 6 -1 2 -6 -7 -12 -10 -5 -18 -15 -18 -20 0 -9
17 -7 58 8 19 8 14 -21 -8 -40 -11 -9 -20 -12 -20 -6 0 8 -4 8 -12 1 -13 -10
-46 -10 -63 0 -6 3 -27 8 -47 12 -21 4 -41 13 -45 20 -11 18 -67 46 -94 46
-28 0 -107 45 -134 76 -18 21 -40 28 -72 25 -7 0 -1 -13 12 -27 14 -15 25 -32
25 -39 0 -6 11 -34 25 -61 25 -49 35 -134 15 -134 -5 0 -10 -5 -10 -11 0 -5 4
-7 10 -4 5 3 13 -7 16 -22 4 -15 24 -64 45 -108 41 -85 50 -135 23 -135 -8 0
-12 5 -9 10 13 21 -6 27 -51 19 -30 -6 -51 -5 -59 1 -6 5 -15 7 -18 4 -9 -9
-20 43 -12 58 3 7 0 5 -8 -4 -19 -23 -22 -23 -58 10 -31 27 -90 40 -86 19 1
-7 -7 -12 -18 -12 -15 0 -19 6 -17 21 1 12 -4 27 -13 34 -9 7 -15 8 -15 2 0
-6 6 -13 13 -16 8 -3 7 -8 -6 -16 -12 -8 -16 -18 -12 -31 8 -25 1 -24 -29 6
-14 14 -30 25 -36 25 -7 0 -5 -7 4 -16 21 -20 20 -23 -3 -17 -10 3 -28 0 -40
-6 -16 -9 -21 -9 -21 1 0 19 36 48 59 48 21 0 45 23 34 33 -3 4 -13 1 -21 -6
-8 -6 -34 -12 -58 -12 -35 -1 -41 2 -31 13 6 7 21 12 34 9 36 -7 27 10 -9 18
-42 10 -58 27 -58 64 0 20 -7 34 -20 41 -11 6 -20 15 -20 21 0 6 5 7 10 4 6
-4 17 -1 25 5 11 9 18 9 30 -4 17 -17 60 -23 51 -7 -8 12 72 19 84 7 5 -5 36
-1 77 10 64 17 66 19 41 28 -33 12 -37 42 -8 51 11 3 20 11 20 16 0 15 -28 10
-38 -7 -6 -10 -14 -14 -22 -9 -9 5 -9 9 -1 14 7 5 2 12 -14 21 -22 12 -30 11
-61 -6 -20 -10 -35 -23 -33 -29 2 -5 7 -9 11 -8 9 3 22 -37 14 -44 -3 -3 -27
-7 -53 -8 -26 -2 -52 -4 -58 -5 -5 -1 -25 -2 -44 -1 -25 1 -32 5 -27 16 3 8 9
21 12 29 4 10 -2 12 -21 8 -34 -6 -68 23 -58 52 3 12 7 35 7 51 1 28 4 30 41
33 22 1 50 8 62 14 12 6 42 8 67 6 29 -4 47 -1 49 6 3 8 8 7 20 -2 12 -10 24
-11 56 -2 31 8 49 7 80 -4 l41 -14 1 42 c1 22 0 51 -1 64 -3 35 20 91 41 103
11 6 29 29 39 52 22 52 72 99 125 119 22 9 44 16 48 16 4 1 22 13 40 26 l32
26 -650 -1 c-597 0 -648 -1 -621 -16 55 -29 92 -35 281 -39 105 -2 219 -6 255
-8 59 -4 145 -32 177 -58 16 -13 105 -18 119 -7 18 14 56 -35 52 -67 -2 -23
-9 -30 -30 -32 -31 -4 -37 -18 -10 -25 9 -3 -5 -3 -32 0 -28 2 -55 7 -60 11
-18 11 -38 14 -104 15 -56 1 -66 -2 -88 -26 -16 -18 -36 -27 -57 -28 -18 0
-51 -2 -74 -4 -33 -2 -42 1 -46 15 -3 10 -1 22 4 27 20 20 -72 6 -100 -15 -37
-27 -41 -27 -41 -2 0 20 -24 28 -34 11 -3 -5 -21 -12 -40 -15 -19 -4 -39 -13
-46 -21 -19 -23 -30 -18 -30 15 l0 31 -31 -36 c-24 -27 -39 -35 -65 -35 -28 0
-34 4 -34 21 0 29 -25 52 -38 36 -6 -7 -11 -16 -11 -22 -1 -25 -42 -14 -77 20
-23 23 -40 33 -46 27 -12 -12 -77 27 -78 46 0 8 -19 12 -60 12 -33 0 -60 4
-60 10 0 6 -11 10 -24 10 -13 0 -26 7 -30 15 -4 12 0 14 22 9 15 -4 30 -7 33
-8 7 -1 159 123 159 130 0 9 -383 2 -407 -7 -14 -5 -22 -5 -19 0 4 6 -109 9
-274 9 -261 0 -281 -1 -293 -18 -9 -13 -17 -16 -27 -9 -8 5 -26 9 -40 10 -23
0 -23 1 -5 9 14 6 -3 9 -53 9 -51 1 -80 -4 -97 -15 -14 -9 -23 -20 -20 -24 2
-4 -14 -13 -37 -19 -32 -10 -42 -10 -48 -1 -5 9 -10 6 -15 -9 -3 -11 -14 -21
-23 -21 -9 0 -28 -3 -42 -5 -23 -5 -23 -4 3 8 26 12 27 15 12 27 -15 12 -19
11 -34 -9 -12 -16 -26 -22 -47 -21 -44 3 -56 1 -49 -9 3 -5 1 -13 -5 -16 -8
-5 -8 -11 0 -20 9 -11 5 -14 -22 -17 -25 -2 -34 -8 -36 -25 -3 -17 1 -20 16
-16 11 2 23 0 26 -6 5 -7 -9 -11 -43 -11 -40 0 -53 -4 -65 -22 -9 -12 -19 -18
-23 -14 -4 4 -1 11 6 15 7 5 11 13 8 18 -8 13 12 83 24 83 5 0 17 17 26 38 10
20 26 49 36 65 l18 27 -245 0 c-238 0 -246 -1 -246 -20 0 -23 28 -40 64 -40
14 0 26 -5 26 -11 0 -5 8 -9 18 -8 40 4 63 -1 56 -13 -4 -6 1 -17 11 -25 17
-12 16 -13 -13 -13 -18 0 -32 5 -32 11 0 5 -5 7 -11 3 -21 -13 18 -36 67 -41
27 -2 53 -9 59 -15 7 -8 5 -9 -7 -5 -9 3 -22 -1 -28 -9 -16 -19 6 -47 32 -41
10 3 18 1 18 -4 0 -5 15 -6 34 -3 19 3 37 0 41 -6 3 -5 1 -10 -5 -10 -6 0 -8
-4 -5 -10 3 -5 -2 -10 -12 -10 -17 -1 -17 -1 0 -11 9 -6 26 -7 37 -4 33 10 20
-36 -22 -77 -21 -20 -34 -39 -30 -42 15 -9 126 -24 136 -19 5 3 7 0 4 -8 -3
-8 -18 -17 -34 -20 l-29 -5 34 -8 c32 -8 33 -9 16 -22 -17 -13 -17 -14 -1 -20
10 -4 21 -2 25 5 5 7 16 -2 32 -26 13 -21 33 -39 44 -42 24 -4 35 -19 28 -38
-5 -11 -9 -11 -23 2 -17 15 -19 15 -31 -2 -10 -14 -25 -19 -49 -17 -19 1 -35
3 -35 4 0 1 -10 3 -22 4 -13 2 -23 -1 -23 -6 0 -4 7 -8 16 -8 8 0 13 -4 9 -10
-3 -5 -15 -6 -28 -1 -16 6 -29 2 -50 -13 -22 -16 -44 -21 -110 -22 -58 -1 -96
-7 -127 -21 -25 -11 -50 -18 -57 -16 -6 2 -39 -5 -74 -16 -34 -12 -72 -21 -83
-21 -12 0 -29 -9 -39 -20 -12 -14 -29 -20 -57 -20 l-40 0 2 252 3 251 53 16
c83 25 57 36 -36 15 -23 -5 -23 -3 -22 63 1 37 1 96 1 131 -1 59 -2 62 -26 62
l-25 0 0 -2770z m2024 2720 c5 0 6 -3 3 -6 -4 -4 -13 -1 -22 6 -8 7 -15 9 -15
4 0 -11 -20 18 -20 29 0 4 10 -1 22 -13 12 -11 26 -20 32 -20z m-786 10 c2 0
0 -5 -3 -11 -4 -6 -13 -8 -21 -5 -8 3 -17 -1 -20 -9 -8 -19 -20 -19 -28 0 -11
30 3 44 37 34 18 -5 33 -9 35 -9z m868 3 c7 -10 13 -27 14 -38 0 -17 -4 -16
-25 10 -13 17 -24 33 -25 38 0 14 23 7 36 -10z m-371 -13 c-3 -5 -13 -10 -21
-10 -8 0 -12 5 -9 10 3 6 13 10 21 10 8 0 12 -4 9 -10z m-670 -39 c3 -6 -3 -9
-14 -8 -11 0 -17 5 -15 9 7 11 22 10 29 -1z m332 -13 c-3 -8 -6 -5 -6 6 -1 11
2 17 5 13 3 -3 4 -12 1 -19z m673 18 c0 -2 -7 -6 -15 -10 -8 -3 -15 -1 -15 4
0 6 7 10 15 10 8 0 15 -2 15 -4z m-450 -35 c0 -5 -7 -14 -15 -21 -12 -10 -15
-10 -15 2 0 8 3 18 7 21 9 10 23 9 23 -2z m-743 -7 c-3 -3 -12 -4 -19 -1 -8 3
-5 6 6 6 11 1 17 -2 13 -5z m48 -14 c-3 -5 -12 -7 -20 -3 -21 7 -19 13 6 13
11 0 18 -4 14 -10z m930 -10 c3 -5 -3 -10 -15 -10 -12 0 -18 5 -15 10 3 6 10
10 15 10 5 0 12 -4 15 -10z m-770 -29 c-6 -5 -25 10 -25 20 0 5 6 4 14 -3 8
-7 12 -15 11 -17z m144 10 c14 -14 22 -16 30 -8 13 13 14 -2 1 -23 -14 -22 7
-29 48 -15 19 7 52 10 71 8 20 -3 52 1 71 9 31 13 36 12 53 -5 10 -10 16 -21
13 -25 -4 -3 -12 2 -19 12 -10 14 -18 15 -40 7 -37 -14 -34 -25 6 -18 17 3 26
3 19 0 -6 -2 -10 -8 -7 -13 3 -4 -6 -10 -20 -12 -13 -3 -22 -1 -19 3 10 16
-47 31 -64 17 -9 -8 -34 -12 -62 -10 -41 3 -50 0 -65 -20 -9 -13 -19 -18 -21
-12 -3 6 -15 9 -28 7 -13 -3 -27 0 -30 6 -4 7 -1 9 8 5 8 -3 26 2 39 11 23 14
24 19 13 46 -10 28 -14 30 -45 25 -19 -3 -38 -12 -43 -19 -4 -8 -21 -20 -38
-27 -20 -8 -30 -20 -30 -34 0 -15 -3 -17 -9 -8 -10 17 9 61 24 56 6 -3 21 9
33 26 27 36 80 42 111 11z m489 -4 c2 -10 -3 -17 -13 -17 -10 0 -14 5 -10 13
4 6 0 4 -8 -6 -8 -10 -13 -26 -10 -36 4 -16 10 -17 41 -10 43 9 52 5 23 -10
-11 -6 -32 -23 -45 -36 -15 -15 -37 -25 -53 -25 -21 0 -24 -3 -15 -12 17 -17
15 -26 -5 -30 -10 -2 -26 5 -36 15 -17 17 -18 21 -3 50 15 31 14 32 -7 42 -12
5 -25 14 -29 19 -12 18 14 41 48 43 19 1 32 -3 29 -8 -4 -5 3 -9 14 -9 12 0
21 6 21 14 0 28 53 30 58 3z m-835 -13 c-3 -9 -9 -12 -12 -7 -3 4 -10 11 -15
16 -5 4 0 7 12 7 15 0 20 -4 15 -16z m77 -4 c-8 -5 -24 -9 -35 -9 -16 1 -16 2
5 9 35 11 48 11 30 0z m-400 -16 c0 -2 -7 -4 -15 -4 -8 0 -15 4 -15 10 0 5 7
7 15 4 8 -4 15 -8 15 -10z m327 -21 c10 -10 17 -17 14 -16 -2 2 -10 -2 -18 -9
-16 -13 -26 -5 -28 22 -2 25 7 25 32 3z m-151 -39 c-4 -9 -1 -23 5 -31 7 -7 9
-16 6 -19 -3 -3 -13 6 -23 21 -15 23 -15 28 -3 36 20 12 22 11 15 -7z m89 -4
c3 -5 1 -10 -4 -10 -6 0 -11 5 -11 10 0 6 2 10 4 10 3 0 8 -4 11 -10z m312 4
c-3 -3 -12 -4 -19 -1 -8 3 -5 6 6 6 11 1 17 -2 13 -5z m369 -23 c-14 -15 -14
-20 -4 -25 7 -3 1 -4 -14 -1 -15 3 -30 1 -33 -5 -3 -5 -1 -10 5 -10 6 0 8 -5
4 -11 -3 -6 -23 -9 -44 -7 -21 2 -36 0 -34 -4 7 -11 -23 -21 -36 -13 -8 5 -8
11 0 20 7 8 9 18 6 24 -7 11 89 45 135 48 30 2 31 2 15 -16z m-654 -22 c-6
-38 -20 -44 -57 -25 -26 14 -27 16 -9 21 15 5 66 30 70 34 0 1 -1 -13 -4 -30z
m138 17 c0 -3 -4 -8 -10 -11 -5 -3 -10 -1 -10 4 0 6 5 11 10 11 6 0 10 -2 10
-4z m330 -36 c0 -5 -7 -7 -15 -4 -8 4 -15 8 -15 10 0 2 7 4 15 4 8 0 15 -4 15
-10z m244 -25 c-4 -8 -12 -15 -20 -15 -8 0 -11 6 -8 15 4 8 12 15 20 15 8 0
11 -6 8 -15z m2469 -137 c23 -2 18 -6 -30 -20 -46 -13 -54 -14 -39 -2 11 8 16
14 12 14 -5 0 -3 7 4 15 8 9 16 12 19 6 3 -5 19 -11 34 -13z m177 -20 c0 -5
-10 -6 -21 -3 -15 5 -19 4 -15 -4 4 -6 2 -11 -3 -11 -13 0 -13 3 -5 23 6 16
44 12 44 -5z m-2443 -25 c2 -6 -8 -24 -22 -42 -15 -17 -23 -35 -20 -41 4 -6
-1 -20 -11 -31 -16 -18 -16 -19 4 -19 31 0 36 -33 13 -79 -14 -26 -19 -50 -15
-69 5 -26 3 -29 -38 -42 -23 -8 -55 -15 -70 -16 -30 -2 -92 -44 -65 -44 8 0
17 -7 21 -15 4 -12 -1 -15 -25 -13 -17 1 -33 6 -35 10 -7 12 -44 10 -44 -2 0
-5 6 -10 13 -10 6 0 21 -12 31 -27 11 -14 13 -23 6 -18 -10 6 -12 4 -7 -8 10
-26 -15 -20 -38 9 -19 24 -22 25 -37 10 -18 -17 -83 -23 -73 -6 3 6 -1 10 -9
10 -8 0 -17 4 -20 9 -4 5 2 7 12 4 10 -2 31 1 46 7 40 15 22 29 -50 40 -59 8
-114 27 -125 43 -7 10 25 47 41 47 6 0 10 7 10 15 0 8 5 15 10 15 6 0 13 7 17
16 8 21 110 124 123 124 5 0 13 7 18 17 7 12 18 15 46 10 31 -5 36 -3 36 13 0
22 22 39 28 22 5 -17 42 -15 42 3 0 9 9 15 24 15 14 0 32 7 41 16 16 17 92 45
109 40 6 -1 11 -7 13 -13z m1685 -67 c-3 -5 -11 -1 -19 9 -19 27 -16 38 5 18
11 -10 17 -22 14 -27z m946 -9 c3 -12 -5 -19 -27 -23 -17 -4 -34 -11 -37 -15
-8 -13 -54 -11 -54 2 0 7 10 9 28 5 23 -5 24 -5 9 5 -17 10 -15 12 15 29 40
22 62 21 66 -3z m-240 -48 c30 1 33 -1 27 -21 -12 -39 -23 -44 -56 -25 -17 9
-37 17 -45 17 -16 0 -16 2 -8 25 5 12 13 15 28 10 11 -4 36 -7 54 -6z m60 -58
c3 -8 -1 -12 -9 -9 -7 2 -15 10 -17 17 -3 8 1 12 9 9 7 -2 15 -10 17 -17z
m-1417 -19 c64 -30 125 -96 165 -174 14 -28 24 -59 21 -68 -8 -30 20 -117 51
-162 44 -64 61 -102 104 -223 37 -108 50 -207 30 -230 -5 -6 -15 -29 -22 -53
-7 -24 -18 -41 -25 -39 -6 3 -24 -8 -39 -24 -16 -16 -40 -29 -52 -29 -13 0
-28 -9 -34 -20 -6 -10 -28 -24 -49 -30 -36 -9 -46 -7 -100 20 -33 17 -84 47
-112 66 -28 18 -62 34 -75 34 -28 0 -43 -25 -25 -43 8 -8 11 -8 11 1 0 21 51
13 84 -13 90 -74 105 -88 100 -97 -3 -5 -12 -7 -20 -4 -8 3 -40 -4 -70 -15
-49 -18 -60 -19 -83 -8 -47 23 -52 30 -40 46 7 7 9 16 6 19 -6 6 -83 -16 -138
-40 -26 -11 -52 -14 -90 -9 l-54 6 27 -32 c24 -27 29 -63 10 -59 -4 1 -20 -5
-37 -12 -70 -30 -111 -20 -99 25 11 38 56 125 65 125 5 0 9 7 9 15 0 33 -84
-61 -125 -140 -18 -35 -59 -48 -105 -34 -29 9 -44 9 -52 1 -16 -16 -66 44 -84
103 -25 85 -39 342 -24 439 11 73 11 90 -5 151 -19 79 -15 169 12 238 22 56
33 72 95 135 56 57 89 70 186 76 98 7 154 17 247 46 122 38 120 38 205 39 62
0 85 -4 131 -27z m-1966 -2 c3 -5 -1 -10 -10 -10 -9 0 -13 5 -10 10 3 6 8 10
10 10 2 0 7 -4 10 -10z m3430 -40 c8 -13 -5 -13 -25 0 -13 8 -13 10 2 10 9 0
20 -4 23 -10z m86 0 c20 -11 26 -30 8 -30 -5 0 -8 4 -5 9 4 5 -6 14 -21 19
-16 6 -22 11 -15 11 7 1 22 -4 33 -9z m74 -40 c-3 -5 -14 -10 -23 -10 -15 0
-15 2 -2 10 20 13 33 13 25 0z m-885 -70 c0 -5 16 -20 36 -34 23 -16 32 -26
24 -31 -7 -4 -16 -2 -20 5 -4 7 -16 9 -28 6 -13 -4 -22 -1 -26 9 -3 9 -2 13 4
10 6 -3 7 1 4 10 -7 17 -30 15 -27 -3 1 -5 -5 -13 -13 -16 -12 -5 -14 -1 -8
17 4 12 12 25 18 29 16 11 36 10 36 -2z m-75 -40 c3 -6 -3 -10 -14 -10 -14 0
-21 -6 -21 -19 0 -22 16 -37 22 -21 5 14 68 25 68 11 0 -6 -8 -11 -18 -11 -10
0 -27 -6 -37 -14 -17 -12 -22 -12 -37 6 -10 11 -15 24 -13 29 3 4 1 10 -5 14
-6 4 -8 10 -6 13 7 12 54 13 61 2z m-100 -10 c-27 -12 -43 -12 -25 0 8 5 22 9
30 9 10 0 8 -3 -5 -9z m-1720 -20 c3 -6 -6 -15 -21 -20 -15 -6 -24 -13 -21
-16 3 -3 24 4 47 15 34 16 42 17 47 5 10 -27 -5 -41 -51 -48 -71 -11 -83 4
-40 48 30 30 31 30 39 16z m-66 -16 c2 -2 -10 -4 -27 -4 -18 0 -32 5 -32 10 0
9 47 4 59 -6z m1756 6 c3 -5 1 -10 -4 -10 -6 0 -11 5 -11 10 0 6 2 10 4 10 3
0 8 -4 11 -10z m-1775 -41 c0 -5 -7 -9 -15 -9 -15 0 -20 12 -9 23 8 8 24 -1
24 -14z m1967 15 c13 -4 20 -10 17 -15 -9 -15 23 -10 36 6 8 9 29 15 59 15 36
-1 42 -3 28 -11 -9 -6 -26 -8 -36 -4 -14 4 -21 0 -26 -15 -5 -17 -13 -21 -43
-18 -21 2 -36 8 -35 14 1 7 -5 11 -14 10 -9 0 -18 5 -20 12 -5 13 1 15 34 6z
m-2371 -64 c-38 -7 -64 -1 -45 10 7 5 18 6 25 3 6 -2 15 0 19 6 4 7 10 7 20
-2 11 -10 7 -13 -19 -17z m229 0 c-5 -8 36 -1 82 14 12 4 24 2 28 -4 3 -5 14
-10 23 -10 9 0 40 -11 67 -25 28 -13 60 -25 73 -25 12 0 25 -6 28 -14 3 -8 16
-17 30 -20 26 -7 31 -25 13 -43 -15 -15 -3 -33 22 -33 12 0 19 -5 16 -12 -2
-7 -15 -12 -28 -10 -13 1 -32 3 -42 3 -9 0 -15 4 -12 10 7 10 -19 12 -64 3
-24 -5 -29 -10 -21 -19 8 -10 8 -15 -1 -20 -14 -9 95 -47 140 -48 19 -1 36 4
39 11 7 21 20 13 15 -8 -3 -12 2 -29 11 -39 21 -23 13 -29 -38 -29 -21 0 -42
-5 -46 -11 -4 -7 -15 -9 -26 -4 -17 6 -17 5 -5 -10 7 -9 20 -17 29 -17 19 0
52 -29 52 -46 0 -7 6 -14 12 -16 22 -8 14 -42 -11 -54 -16 -8 -29 -25 -36 -50
-7 -24 -17 -40 -29 -42 -11 -2 -16 0 -12 6 3 6 2 13 -4 17 -9 6 -14 -7 -11
-27 0 -5 -8 -8 -19 -8 -11 0 -20 -4 -20 -10 0 -5 14 -10 30 -10 20 0 30 -5 30
-15 0 -18 22 -14 104 19 41 17 52 26 46 36 -5 8 -6 18 -4 22 3 4 -4 8 -15 8
-26 0 -27 16 -2 30 33 17 71 -5 71 -42 0 -12 -5 -15 -16 -11 -15 5 -16 1 -10
-33 4 -21 14 -46 22 -55 8 -8 14 -24 14 -35 0 -18 -2 -18 -18 3 -12 16 -26 21
-50 19 -28 -2 -31 0 -27 18 6 19 4 19 -14 -3 -12 -13 -21 -18 -21 -12 0 14
-49 4 -71 -15 -8 -8 -20 -14 -26 -14 -5 0 -10 -7 -10 -15 0 -18 18 -20 35 -3
21 21 25 -1 6 -37 -12 -23 -26 -35 -39 -34 -20 0 -20 0 0 10 15 7 11 8 -15 3
-74 -13 -79 -13 -73 2 4 10 -3 14 -21 14 -14 0 -26 -4 -26 -10 0 -5 -11 -10
-24 -10 -32 0 -45 20 -14 21 21 1 20 2 -7 14 -36 17 -65 19 -65 5 0 -5 9 -10
21 -10 12 0 17 -4 14 -11 -4 -6 -12 -8 -19 -6 -6 3 -20 -1 -29 -8 -9 -7 -28
-10 -41 -8 -13 3 -32 0 -43 -7 -15 -10 -15 -11 -1 -6 10 3 20 1 23 -4 4 -6 -1
-10 -9 -10 -9 0 -16 -7 -16 -16 0 -20 -22 -13 -35 12 -8 16 -14 18 -38 10 -20
-7 -26 -15 -21 -28 5 -16 -1 -18 -45 -18 -27 0 -53 -4 -56 -10 -3 -5 1 -10 9
-10 9 0 16 -4 16 -9 0 -5 11 -8 24 -7 21 3 23 1 14 -14 -10 -16 -16 -16 -71
-4 -59 14 -97 11 -97 -6 0 -5 -13 -7 -30 -5 -16 3 -44 7 -60 10 -19 3 -29 1
-25 -5 3 -6 18 -10 33 -10 60 -1 -6 -18 -85 -22 -68 -4 -83 -2 -83 10 0 12 -3
12 -17 1 -17 -13 -17 -13 -3 6 8 11 25 31 38 45 12 14 22 29 22 33 0 5 -10 6
-22 2 -13 -3 -6 4 15 15 41 22 49 35 16 25 -18 -6 -19 -5 -10 13 13 25 59 36
94 23 17 -7 27 -7 27 -1 0 6 -9 10 -21 10 -36 0 -11 17 27 18 20 1 45 4 55 7
15 5 17 3 12 -12 -6 -16 -5 -16 10 -4 17 14 23 32 10 30 -22 -4 -43 2 -39 10
4 5 20 5 40 -1 47 -15 78 -4 99 33 20 35 29 33 31 -8 1 -22 5 -27 20 -25 49 9
90 62 48 62 -11 0 -27 8 -36 19 -16 18 -16 19 12 29 26 9 29 8 25 -8 -3 -10 2
-20 11 -23 9 -4 16 -1 16 6 0 8 4 7 9 -3 6 -8 7 -19 3 -25 -3 -5 1 -4 10 2 8
7 18 10 21 6 4 -3 7 -1 7 5 0 7 7 12 15 12 23 0 18 -28 -6 -35 -11 -4 -18 -9
-15 -12 10 -11 -23 -33 -49 -33 -24 0 -25 -1 -11 -16 13 -13 21 -13 50 -3 21
7 32 17 29 25 -7 19 58 34 75 17 16 -15 42 -17 42 -3 0 6 -6 10 -12 10 -7 0
-1 8 12 17 14 9 29 23 33 30 5 7 13 11 19 7 7 -4 5 -10 -3 -16 -11 -8 -11 -9
1 -5 8 2 14 10 12 16 -3 17 35 13 42 -5 4 -10 14 -14 25 -11 12 3 22 -1 25 -9
7 -17 34 -17 64 0 23 12 23 12 -15 29 -45 19 -110 36 -161 42 -20 3 -53 8 -72
11 -19 4 -44 8 -54 8 -11 1 -21 7 -24 15 -4 11 2 13 27 8 29 -6 31 -5 31 24
l0 30 -52 -6 -53 -5 24 20 c17 15 19 20 7 20 -8 0 -20 -9 -26 -21 -9 -16 -17
-19 -38 -14 -14 3 -32 14 -40 23 -7 9 -11 12 -8 6 3 -6 -2 -20 -10 -32 -11
-16 -25 -22 -55 -22 -21 0 -39 4 -39 10 0 5 -7 7 -15 4 -9 -4 -13 -13 -10 -23
3 -12 -4 -20 -25 -28 -21 -8 -28 -8 -24 -1 5 8 -7 9 -37 4 -41 -6 -43 -6 -24
8 11 9 25 16 32 16 6 0 14 4 18 9 3 6 -6 6 -25 1 -28 -8 -51 3 -36 17 3 4 6 1
6 -6 0 -7 5 -9 11 -6 6 4 8 13 5 20 -5 15 21 42 31 31 3 -3 1 -6 -5 -6 -7 0
-12 -3 -12 -8 0 -10 93 -2 104 9 5 5 -9 11 -34 15 -41 7 -42 7 -19 20 23 13
23 13 -8 10 -22 -2 -33 1 -33 10 0 18 -60 -13 -61 -32 -1 -8 -2 -20 -3 -26 -2
-22 -30 -20 -44 3 -8 13 -9 18 -2 14 7 -4 10 0 8 11 -2 11 6 23 19 29 24 12
21 25 -5 25 -8 0 -20 7 -27 16 -11 15 -14 14 -36 -8 -13 -14 -33 -30 -44 -37
-20 -10 -20 -11 3 -17 24 -7 30 -23 10 -25 -7 0 2 -5 20 -10 l33 -10 -20 -28
c-18 -25 -28 -29 -72 -30 -31 0 -59 -7 -69 -16 -9 -8 -30 -15 -46 -15 -34 0
-72 -35 -48 -44 8 -3 21 -3 29 0 8 4 15 1 15 -5 0 -6 -15 -11 -32 -11 -21 0
-28 -3 -20 -8 19 -13 -15 -38 -63 -47 -32 -5 -36 -8 -22 -16 9 -6 21 -8 26 -4
5 3 11 0 13 -7 3 -7 17 0 37 18 37 32 52 36 59 14 3 -8 1 -12 -3 -8 -5 5 -22
-3 -40 -16 -26 -20 -40 -23 -76 -19 -42 5 -81 10 -86 12 -1 1 2 13 7 27 10 25
9 26 -17 19 -16 -4 -32 -7 -38 -7 -56 4 -106 12 -122 21 -10 5 -36 16 -58 24
l-40 15 43 8 c23 3 45 11 48 16 3 4 0 7 -8 6 -7 -2 -12 4 -12 13 1 13 -8 16
-51 15 -31 0 -48 -4 -41 -9 6 -5 -3 -6 -22 -3 -22 4 -41 0 -58 -10 -29 -19
-35 0 -6 23 9 8 11 12 5 8 -22 -11 -36 37 -24 80 6 21 7 45 2 53 -4 7 -6 24
-3 37 5 31 44 40 82 20 17 -9 30 -11 30 -5 0 5 7 10 15 10 21 0 19 17 -2 24
-10 3 7 4 37 4 67 -2 120 10 120 27 0 6 10 16 22 22 72 32 99 42 93 33 -4 -6
4 -10 19 -10 13 0 26 -5 28 -11 2 -7 9 -5 17 4 11 14 9 17 -16 23 -15 4 -50
18 -77 32 -27 13 -51 20 -55 15 -3 -5 -16 -9 -28 -9 -41 0 -7 17 40 20 46 3
70 18 75 48 2 14 -3 16 -33 11 -19 -3 -35 -2 -35 3 0 5 44 19 98 31 128 29
182 37 182 26 0 -18 -40 -32 -77 -27 -36 5 -37 4 -19 -10 33 -27 122 -13 110
17 -4 11 7 14 43 15 86 1 107 4 194 26 77 20 90 21 114 9 15 -8 33 -12 41 -9
8 3 34 2 58 -3 34 -6 48 -5 59 7 18 17 164 24 171 8 2 -6 5 -3 5 7 1 10 6 15
11 12 6 -4 8 -10 5 -15z m2249 -5 c17 -13 17 -15 -8 -42 -31 -33 -32 -40 -8
-46 9 -2 4 -5 -13 -6 -25 -1 -86 -7 -105 -10 -3 -1 0 -5 7 -9 6 -4 -12 -7 -40
-7 -31 0 -52 5 -54 13 -5 12 3 13 69 16 51 3 50 35 -1 34 -15 -1 -33 2 -40 6
-6 4 -11 2 -11 -3 0 -6 5 -11 10 -11 22 0 8 -15 -15 -16 -14 -1 -22 2 -19 8 4
6 -6 9 -22 7 -16 -2 -35 0 -42 5 -7 4 -22 4 -35 0 -20 -6 -20 -5 -8 10 11 13
28 17 65 15 55 -2 96 7 96 22 0 5 8 9 18 9 14 0 15 -2 2 -10 -22 -14 0 -30 27
-19 14 5 21 14 17 23 -4 10 3 16 23 19 53 8 68 6 87 -8z m991 5 c3 -5 1 -10
-4 -10 -6 0 -11 5 -11 10 0 6 2 10 4 10 3 0 8 -4 11 -10z m-1304 -15 c-1 -15
-24 -12 -29 3 -3 9 2 13 12 10 10 -1 17 -7 17 -13z m109 -5 c0 -5 -7 -10 -15
-10 -8 0 -15 5 -15 10 0 6 7 10 15 10 8 0 15 -4 15 -10z m-3110 -64 c0 -2 -7
-7 -16 -10 -8 -3 -12 -2 -9 4 6 10 25 14 25 6z m4910 -14 c0 -4 -9 -8 -19 -8
-11 0 -17 4 -15 8 3 4 12 8 20 8 8 0 14 -4 14 -8z m-4917 -32 c-4 -14 -14 -20
-34 -20 -15 0 -31 -4 -34 -10 -3 -5 -18 -10 -32 -10 -20 0 -23 -3 -14 -14 9
-11 6 -12 -15 -8 -15 3 -29 13 -31 22 -3 12 -19 20 -50 25 -25 3 -43 9 -40 11
9 9 188 9 196 1 6 -6 19 -3 32 7 29 20 28 20 22 -4z m5154 14 c-3 -3 -12 -4
-19 -1 -8 3 -5 6 6 6 11 1 17 -2 13 -5z m-2062 -24 c3 -6 -4 -10 -17 -10 -18
0 -20 2 -8 10 19 12 18 12 25 0z m-3325 -14 c0 -3 -4 -8 -10 -11 -5 -3 -10 -1
-10 4 0 6 5 11 10 11 6 0 10 -2 10 -4z m50 -31 c0 -8 -4 -15 -9 -15 -5 0 -17
-7 -25 -16 -22 -21 -21 4 1 28 20 22 33 23 33 3z m5295 5 c3 -5 2 -10 -4 -10
-5 0 -13 5 -16 10 -3 6 -2 10 4 10 5 0 13 -4 16 -10z m-3695 -37 c0 -7 -11
-13 -25 -13 -14 0 -25 6 -25 13 0 6 11 12 25 12 14 0 25 -6 25 -12z m-1533 -8
c0 -8 -4 -12 -9 -9 -5 3 -6 10 -3 15 9 13 12 11 12 -6z m3148 -10 c35 -34 38
-115 9 -190 -9 -22 -18 -61 -20 -87 -3 -45 -2 -47 15 -36 12 7 16 18 13 31 -3
13 -1 18 5 14 6 -4 27 0 47 8 19 8 46 15 58 15 13 0 35 7 51 14 15 9 27 10 27
5 0 -6 4 -7 10 -4 16 10 100 12 106 3 11 -18 31 -6 44 26 12 32 18 35 72 45
32 5 65 8 73 4 8 -3 15 0 15 7 0 9 4 9 13 2 16 -14 33 -3 45 29 9 22 22 28 89
43 93 22 163 18 283 -15 65 -18 94 -32 123 -59 41 -37 74 -57 116 -70 14 -5
75 -26 135 -47 l110 -38 0 -52 c1 -29 -2 -53 -6 -53 -14 0 -8 -37 7 -50 8 -7
15 -27 15 -45 0 -33 -20 -58 -56 -69 -11 -3 -30 -20 -42 -36 -24 -33 -23 -37
8 -18 15 10 22 10 30 0 6 -6 7 -10 3 -7 -3 3 -17 -2 -29 -10 -17 -11 -30 -12
-48 -5 -17 6 -26 5 -30 -3 -2 -7 -5 -5 -5 5 -1 14 -8 16 -37 13 -32 -5 -34 -4
-20 11 19 19 20 30 3 37 -19 7 -68 -4 -62 -13 3 -5 1 -11 -4 -15 -6 -3 -8 -12
-5 -20 6 -15 -41 -33 -53 -21 -4 3 4 6 17 6 15 0 20 4 15 9 -11 10 -35 14 -83
12 -44 -1 -37 -23 11 -34 43 -10 49 -27 10 -27 -14 0 -24 -3 -20 -6 14 -15
-22 -34 -53 -27 -22 4 -35 2 -41 -8 -6 -9 -11 -11 -16 -3 -7 9 -23 10 -77 5
-4 -1 -6 -8 -3 -15 4 -11 1 -13 -11 -9 -15 6 -15 5 -3 -10 7 -9 25 -17 39 -17
33 0 19 -14 -16 -16 -15 -1 -37 -2 -49 -3 -26 -1 -30 -23 -9 -43 11 -12 8 -17
-20 -36 -25 -17 -34 -19 -34 -8 0 17 -75 27 -90 12 -7 -7 -10 -2 -10 12 0 12
-6 22 -12 23 -7 0 -4 5 7 10 15 7 11 7 -14 3 -24 -4 -31 -3 -26 5 4 7 1 18 -5
26 -11 13 -7 15 20 15 36 0 37 19 2 35 -12 5 -22 13 -22 17 0 14 -33 8 -45 -8
-10 -14 -14 -14 -33 -3 -19 12 -24 11 -44 -9 -19 -18 -20 -22 -6 -22 11 0 15
-5 12 -15 -4 -8 -1 -15 6 -15 7 0 10 -6 7 -14 -4 -9 7 -22 29 -35 19 -12 32
-26 29 -31 -4 -6 5 -10 19 -10 28 0 66 -27 66 -47 0 -7 5 -13 10 -13 6 0 19
-9 31 -21 24 -24 49 -31 65 -18 15 12 38 -16 30 -37 -4 -9 -13 -14 -21 -10
-10 3 -15 -1 -16 -12 -1 -11 -3 -8 -8 7 -8 29 -21 37 -86 48 -31 5 -49 13 -48
21 2 6 -5 12 -15 13 -39 2 -77 -4 -83 -13 -9 -15 -59 -1 -59 16 0 18 -61 40
-70 26 -7 -11 -40 -3 -40 9 0 4 -15 8 -33 8 -19 0 -54 9 -78 20 -24 11 -53 24
-64 28 l-20 7 20 8 c15 7 10 9 -22 9 -24 1 -48 8 -58 17 -14 15 -14 17 1 29
16 12 16 13 -4 19 -12 4 -22 14 -22 22 0 10 -9 14 -29 12 -24 -2 -38 7 -71 44
-22 26 -50 50 -62 53 -18 6 -19 12 -13 49 4 22 8 55 10 72 1 17 5 36 9 42 3 6
2 22 -4 37 -12 32 -13 145 -1 145 5 0 9 11 9 25 0 14 7 34 17 45 22 25 13 49
-24 63 -18 7 -33 21 -37 36 -9 31 -5 65 7 69 5 2 9 10 9 18 0 21 49 64 72 64
10 0 30 -11 43 -25z m-3074 -30 c5 4 9 1 9 -4 0 -6 -7 -11 -15 -11 -9 0 -15 9
-14 23 1 17 2 18 6 4 2 -9 9 -15 14 -12z m969 -245 c0 -5 -5 -10 -11 -10 -5 0
-7 5 -4 10 3 6 8 10 11 10 2 0 4 -4 4 -10z m-250 -49 c0 -5 -7 -12 -16 -15
-21 -8 -24 -8 -24 5 0 5 5 7 10 4 6 -3 10 -1 10 4 0 6 5 11 10 11 6 0 10 -4
10 -9z m45 -8 c9 4 14 3 10 -3 -3 -6 -13 -10 -21 -10 -12 0 -17 -18 -13 -46 1
-11 -25 -24 -48 -24 -32 0 -28 22 7 43 19 11 30 26 30 40 0 17 2 19 9 8 5 -8
16 -11 26 -8z m-365 -3 c0 -5 -5 -10 -11 -10 -5 0 -7 5 -4 10 3 6 8 10 11 10
2 0 4 -4 4 -10z m257 4 c-3 -3 -12 -4 -19 -1 -8 3 -5 6 6 6 11 1 17 -2 13 -5z
m343 -14 c0 -5 -2 -10 -4 -10 -3 0 -8 5 -11 10 -3 6 -1 10 4 10 6 0 11 -4 11
-10z m-1180 -9 c0 -5 10 -12 23 -14 13 -3 8 -5 -15 -6 -36 -1 -47 7 -31 22 9
10 23 8 23 -2z m1293 -1 c7 0 4 -5 -6 -11 -18 -11 -37 -5 -37 13 0 5 7 7 16 4
9 -3 21 -6 27 -6z m-338 -10 c-3 -5 -12 -10 -18 -10 -7 0 -6 4 3 10 19 12 23
12 15 0z m-195 -15 c0 -8 -4 -15 -10 -15 -5 0 -7 7 -4 15 4 8 8 15 10 15 2 0
4 -7 4 -15z m-60 -4 c0 -13 -21 -19 -44 -13 -20 5 -20 5 0 13 27 11 44 11 44
0z m137 3 c-3 -3 -12 -4 -19 -1 -8 3 -5 6 6 6 11 1 17 -2 13 -5z m-772 -40
c62 -9 84 -9 112 0 32 10 46 0 32 -25 -18 -34 14 -50 91 -45 53 4 60 3 40 -6
-25 -11 -25 -11 15 -23 23 -7 44 -9 49 -4 17 15 46 11 40 -6 -4 -8 -3 -15 0
-15 15 0 66 31 66 40 0 6 21 8 53 4 46 -5 55 -3 82 20 30 26 48 30 45 11 -1
-6 9 -13 22 -17 l23 -6 -22 -1 c-25 -1 -31 -16 -10 -24 18 -6 2 -19 -26 -21
-14 0 -23 -4 -21 -8 2 -3 1 -8 -3 -10 -5 -1 -16 -16 -25 -33 -15 -27 -22 -30
-65 -30 -40 0 -48 3 -45 18 2 12 -4 17 -18 17 -12 0 -18 -4 -15 -10 3 -5 0
-10 -7 -10 -22 0 -85 -35 -123 -69 -40 -35 -45 -37 -45 -17 0 8 8 17 18 19 16
4 16 5 -1 6 -10 0 -20 -6 -23 -14 -8 -19 -33 -19 -40 0 -7 18 -57 28 -176 34
-51 2 -29 21 25 21 28 0 65 7 81 15 34 18 49 11 43 -21 -3 -19 1 -24 26 -30
26 -5 34 -2 57 26 16 19 32 30 38 26 8 -5 10 -1 6 9 -9 22 -37 15 -49 -13 -7
-15 -18 -22 -39 -22 -23 0 -26 3 -17 13 6 8 7 17 3 22 -4 4 3 4 15 1 17 -5 30
1 54 23 22 21 27 31 16 31 -8 0 -22 -7 -31 -15 -17 -18 -33 -19 -38 -4 -3 9
-9 9 -24 1 -14 -7 -24 -8 -31 -1 -5 5 -30 12 -54 15 -24 2 -49 6 -55 8 -6 2
-29 1 -52 -4 -29 -5 -45 -4 -52 5 -8 9 -6 15 7 19 15 6 15 8 3 16 -8 6 -25 10
-36 10 -20 0 -21 4 -16 48 5 51 21 70 37 48 6 -8 33 -18 60 -22z m1480 26 c3
-5 -3 -10 -15 -10 -12 0 -18 5 -15 10 3 6 10 10 15 10 5 0 12 -4 15 -10z
m-258 -6 c-3 -3 -12 -4 -19 -1 -8 3 -5 6 6 6 11 1 17 -2 13 -5z m-287 -23
c-19 -10 -39 -16 -44 -13 -14 8 25 32 53 32 24 0 24 -1 -9 -19z m-170 -6 c-7
-8 -17 -15 -22 -15 -11 0 14 29 26 30 5 0 3 -7 -4 -15z m288 -10 c-3 -3 -9 2
-12 12 -6 14 -5 15 5 6 7 -7 10 -15 7 -18z m-242 -22 c-3 -4 -6 -1 -6 6 0 10
-8 8 -27 -5 -27 -17 -28 -17 -13 2 24 30 34 34 43 18 5 -9 6 -18 3 -21z m-476
-43 c0 -5 -7 -10 -15 -10 -8 0 -15 5 -15 10 0 6 7 10 15 10 8 0 15 -4 15 -10z
m-385 -49 c3 -5 -2 -17 -11 -25 -14 -15 -14 -16 4 -16 11 0 22 6 24 13 3 6 16
13 29 14 13 1 40 5 59 8 35 6 35 6 10 -9 -14 -8 -40 -15 -57 -16 -25 0 -33 -5
-33 -17 0 -14 -9 -18 -41 -20 -38 -1 -40 0 -37 25 2 20 8 26 22 24 14 -3 17 1
13 12 -7 17 8 22 18 7z m1164 -50 c-15 -5 -22 6 -14 19 6 9 10 9 16 -1 5 -8 4
-15 -2 -18z m-1019 15 c0 -3 -4 -8 -10 -11 -5 -3 -10 -1 -10 4 0 6 5 11 10 11
6 0 10 -2 10 -4z m-65 -16 c-3 -5 -11 -10 -16 -10 -6 0 -7 5 -4 10 3 6 11 10
16 10 6 0 7 -4 4 -10z m1265 6 c0 -3 -4 -8 -10 -11 -5 -3 -10 -1 -10 4 0 6 5
11 10 11 6 0 10 -2 10 -4z m124 -13 c3 -7 12 -13 21 -13 17 0 20 -16 5 -25 -5
-3 -10 -1 -10 6 0 6 -8 9 -20 6 -11 -3 -20 -2 -20 2 0 3 -12 13 -26 22 l-26
16 36 0 c20 0 37 -6 40 -14z m3656 -13 c0 -5 -4 -10 -10 -10 -5 0 -10 5 -10
10 0 6 5 10 10 10 6 0 10 -4 10 -10z m-5075 -44 c20 -15 20 -15 -4 -16 -29 0
-20 -12 12 -16 12 -1 25 -3 30 -3 15 -2 6 -21 -10 -21 -16 -1 -15 -2 2 -12 11
-7 32 -11 47 -9 14 1 29 -2 33 -8 10 -16 62 -13 69 4 6 17 -19 21 -29 5 -4 -6
-15 -4 -30 6 -14 9 -23 19 -21 23 3 5 119 6 159 2 22 -2 -8 -21 -34 -21 -29 0
-40 -14 -16 -23 6 -3 3 -6 -8 -7 l-20 -1 20 -9 c21 -9 79 -3 106 11 11 6 21 4
29 -6 15 -18 69 -20 104 -3 19 8 32 8 48 0 l23 -11 -22 0 c-13 -1 -23 -6 -23
-11 0 -13 50 -2 71 16 23 20 31 6 9 -16 -21 -21 -92 -29 -125 -15 -18 8 -18 7
-5 -6 21 -21 48 -30 52 -17 7 21 37 0 31 -21 -4 -17 -13 -21 -48 -21 -23 0
-58 6 -76 13 -20 8 -81 15 -149 16 -117 2 -149 10 -111 30 12 7 21 18 21 26 0
17 -26 20 -35 5 -4 -6 -11 -8 -16 -4 -6 3 -13 -3 -16 -15 -5 -18 -10 -20 -52
-14 -54 7 -47 3 -56 32 -7 23 -6 24 29 18 20 -3 34 -2 31 3 -3 5 -26 12 -50
16 -25 3 -42 10 -40 15 3 4 -3 12 -12 18 -22 12 -24 61 -3 78 15 12 42 2 85
-31z m5041 30 c8 -8 14 -17 14 -20 0 -11 -29 6 -34 20 -7 18 1 18 20 0z
m-3863 -12 c24 -4 37 -2 37 5 0 6 9 11 20 11 23 0 24 -8 10 -44 -8 -21 -16
-26 -45 -26 -19 0 -35 -5 -35 -11 0 -14 -249 -4 -263 10 -14 14 68 24 91 12
24 -13 86 14 78 34 -9 25 5 26 107 9z m1385 -36 c-2 -17 -9 -23 -25 -22 -13 0
-23 -5 -23 -13 0 -7 -7 -13 -15 -13 -9 0 -27 -7 -40 -16 -32 -21 -139 -24
-157 -5 -11 11 -9 13 10 8 15 -4 22 -1 22 10 0 11 8 14 30 11 18 -3 35 1 41 9
6 7 21 13 33 13 11 0 29 7 39 15 11 7 25 11 32 9 7 -3 16 -1 20 5 12 21 37 12
33 -11z m-1268 -20 c0 -5 -9 -8 -20 -8 -18 0 -19 3 -8 20 9 14 14 16 20 7 4
-7 8 -15 8 -19z m-680 -8 c0 -5 -4 -10 -10 -10 -5 0 -10 5 -10 10 0 6 5 10 10
10 6 0 10 -4 10 -10z m2098 -5 c2 -2 -2 -21 -7 -43 -8 -27 -8 -48 -1 -67 22
-58 -1 -138 -45 -155 -12 -5 -25 -15 -28 -23 -9 -23 -43 -14 -71 18 -27 31
-35 75 -15 75 17 0 38 32 39 58 0 16 -6 22 -22 22 -12 0 -30 8 -40 17 -13 12
-21 14 -29 6 -6 -6 -18 -9 -25 -6 -8 3 -14 0 -14 -6 0 -7 -21 -11 -53 -11 -59
0 -72 -6 -56 -27 9 -10 6 -13 -17 -15 -16 -1 -37 -2 -46 -2 -10 -1 -17 -6 -16
-11 4 -15 49 -50 89 -69 59 -28 58 -89 -2 -100 -64 -11 -152 82 -164 174 -8
65 8 82 64 68 35 -9 44 -8 54 5 7 8 35 18 62 21 56 8 120 26 225 66 37 14 104
17 118 5z m-1488 -5 c0 -5 -4 -10 -10 -10 -5 0 -10 5 -10 10 0 6 5 10 10 10 6
0 10 -4 10 -10z m-1306 -15 c-4 -9 0 -15 10 -15 9 0 16 -4 16 -9 0 -9 -24 -21
-41 -21 -13 0 -11 34 3 48 16 16 19 15 12 -3z m979 8 c-7 -2 -19 -2 -25 0 -7
3 -2 5 12 5 14 0 19 -2 13 -5z m2837 -23 c0 -5 -4 -10 -10 -10 -5 0 -10 5 -10
10 0 6 5 10 10 10 6 0 10 -4 10 -10z m-2967 -30 c-3 -11 -15 -27 -26 -35 -19
-13 -19 -15 -4 -15 10 0 20 6 23 13 3 8 19 14 37 15 l32 1 -29 -25 c-16 -14
-35 -23 -44 -19 -16 6 -42 -11 -42 -27 0 -6 7 -5 15 2 9 7 18 10 21 7 3 -3 -8
-13 -25 -21 -26 -14 -41 -15 -101 -5 -73 12 -81 18 -36 25 54 8 72 12 96 22
19 8 20 11 7 11 -28 1 -9 21 19 21 17 0 27 8 34 25 11 30 30 34 23 5z m67 11
c0 -14 -18 -23 -31 -15 -8 4 -7 9 2 15 18 11 29 11 29 0z m2225 -93 c15 -78
19 -152 20 -303 1 -246 -6 -292 -53 -375 -32 -55 -43 -65 -81 -78 -27 -9 -58
-30 -80 -55 -52 -58 -126 -132 -206 -207 -39 -36 -81 -79 -94 -95 l-24 -30
-27 33 c-15 18 -40 57 -55 85 -16 29 -79 130 -142 224 -106 162 -127 203 -103
203 17 0 0 73 -24 105 -34 47 -65 126 -69 182 -3 41 -1 50 10 46 7 -3 20 -18
29 -34 8 -16 19 -28 25 -26 6 1 16 -7 22 -18 7 -11 21 -26 32 -34 11 -8 37
-33 58 -54 20 -22 37 -37 37 -33 0 4 17 -12 38 -34 20 -23 48 -48 62 -56 53
-29 64 -42 50 -59 -9 -11 -9 -15 -1 -15 7 0 9 -4 6 -10 -3 -5 7 -12 22 -16 15
-4 40 -13 55 -21 34 -16 44 -16 40 2 -2 11 18 26 39 29 3 1 13 8 22 18 10 9
25 14 37 11 34 -9 22 11 -20 31 -35 17 -38 21 -27 40 6 12 12 23 12 26 2 16
39 60 51 60 16 0 19 26 4 35 -5 3 -10 12 -9 18 0 8 2 8 6 -1 4 -9 10 -7 23 8
10 11 20 17 22 13 3 -4 3 -2 1 5 -2 8 6 16 17 19 24 6 27 23 4 23 -11 0 -14 5
-10 16 3 9 6 22 6 30 0 10 6 13 19 9 13 -4 20 0 24 15 3 11 13 20 24 20 10 0
25 5 33 10 12 8 13 13 3 29 -10 16 -10 23 2 35 8 8 15 21 15 28 0 7 14 29 30
48 16 19 30 43 30 54 0 10 8 35 19 55 10 20 24 48 30 64 6 15 14 27 19 27 5 0
17 -46 27 -102z m1102 80 c0 -13 -1 -17 -4 -10 -3 6 -11 12 -19 12 -8 0 -14 5
-14 10 0 6 8 10 18 10 11 0 18 -8 19 -22z m56 14 c2 7 7 11 10 8 3 -3 -4 -16
-16 -30 -12 -16 -18 -18 -14 -7 4 9 2 17 -3 17 -6 0 -10 5 -10 11 0 8 4 8 14
0 11 -9 15 -9 19 1z m-4286 -28 c-3 -3 -12 -4 -19 -1 -8 3 -5 6 6 6 11 1 17
-2 13 -5z m1507 -4 c-16 -16 -89 -26 -80 -11 4 6 11 9 16 6 4 -3 19 -1 32 4
31 13 44 13 32 1z m3613 -6 c-3 -3 -12 -4 -19 -1 -8 3 -5 6 6 6 11 1 17 -2 13
-5z m-937 -24 c0 -5 -5 -10 -11 -10 -5 0 -7 5 -4 10 3 6 8 10 11 10 2 0 4 -4
4 -10z m-310 -10 c0 -5 -2 -10 -4 -10 -3 0 -8 5 -11 10 -3 6 -1 10 4 10 6 0
11 -4 11 -10z m-2110 -91 c0 -4 -4 -10 -9 -13 -5 -3 -12 -22 -15 -41 -7 -35
-7 -35 -61 -35 l-54 0 14 33 c8 21 23 35 42 41 15 4 35 12 43 16 19 9 40 9 40
-1z m-1100 -23 c0 -3 -13 -11 -30 -20 -24 -12 -30 -12 -30 -1 0 13 17 21 48
24 6 0 12 -1 12 -3z m160 -26 c8 -1 43 -8 77 -16 34 -8 78 -15 97 -16 20 -1
36 -5 36 -10 0 -5 9 -7 19 -3 11 3 22 1 26 -5 4 -7 18 -9 32 -5 14 3 31 1 38
-5 7 -6 17 -10 21 -9 9 2 67 -12 132 -32 17 -6 32 -14 32 -17 0 -4 -27 -18
-60 -32 -56 -24 -64 -30 -61 -55 0 -6 -9 -17 -22 -24 -22 -14 -22 -14 -3 8 17
19 18 21 2 21 -9 0 -14 5 -11 10 3 6 -1 10 -9 10 -18 0 -30 -17 -16 -22 5 -1
7 -14 3 -26 -4 -18 -8 -20 -14 -10 -7 10 -9 9 -9 -4 0 -28 -1 -32 -12 -45 -7
-9 -7 -13 0 -13 5 0 8 -10 4 -22 -3 -14 -2 -19 6 -14 7 4 12 2 12 -3 0 -6 -7
-11 -15 -11 -11 0 -15 -12 -15 -51 0 -41 3 -50 15 -45 9 3 15 0 15 -9 0 -8 -4
-15 -9 -15 -5 0 -12 -7 -15 -16 -4 -12 -2 -15 9 -10 10 4 15 -1 15 -14 0 -11
-7 -20 -16 -20 -8 0 -12 -5 -9 -10 4 -7 12 -7 24 0 13 7 17 17 13 37 -2 15 -3
26 -1 23 2 -3 13 -16 24 -29 12 -15 14 -21 5 -16 -12 7 -13 6 -5 -6 6 -8 8
-36 5 -64 -6 -49 -6 -49 -18 -22 -6 15 -11 31 -11 35 3 18 -3 22 -20 12 -17
-8 -20 -6 -26 20 -7 32 -8 177 -2 248 2 24 0 45 -3 47 -4 2 -19 -9 -35 -25
-15 -15 -33 -26 -40 -24 -7 3 -16 -4 -20 -15 -8 -27 -25 -28 -18 -1 6 23 -12
27 -21 5 -3 -8 -17 -15 -31 -15 -15 0 -24 4 -20 10 4 6 10 8 15 5 9 -6 22 36
13 45 -3 3 -8 -1 -10 -7 -3 -7 -9 -13 -14 -13 -6 0 -7 5 -4 10 9 14 -8 12 -24
-2 -9 -8 -11 -8 -8 -2 4 7 0 15 -9 18 -26 10 -34 7 -34 -14 0 -11 -4 -20 -10
-20 -5 0 -10 5 -10 10 0 6 -6 5 -14 -2 -18 -16 -11 -28 16 -28 34 0 12 -13
-24 -14 -27 -1 -33 -5 -32 -23 1 -26 -14 -31 -22 -8 -4 8 -13 15 -21 15 -8 0
-12 4 -9 9 3 5 16 6 28 3 22 -5 22 -5 5 21 -10 15 -13 27 -7 27 6 0 8 5 5 11
-5 7 -13 5 -25 -6 -12 -11 -20 -13 -25 -6 -3 6 -1 11 4 11 6 0 11 4 11 10 0
12 -32 1 -46 -17 -12 -14 -44 -8 -44 9 0 6 -6 5 -15 -2 -8 -6 -19 -9 -24 -6
-6 4 -19 1 -29 -5 -20 -12 -57 -6 -49 8 6 10 -74 10 -89 1 -14 -9 -55 2 -48
13 7 13 -10 11 -23 -2 -8 -8 -17 -8 -31 0 -16 8 -21 6 -31 -15 -15 -34 -17
-32 34 -40 43 -6 54 -24 14 -24 -10 0 -28 -9 -40 -21 -13 -13 -27 -18 -40 -14
-25 8 -26 -19 -1 -35 13 -9 7 -10 -28 -4 -52 9 -92 10 -135 3 -22 -3 -30 0
-30 11 0 9 9 15 22 15 31 1 42 15 12 16 l-24 0 24 12 c19 9 26 8 36 -6 13 -18
65 -24 65 -7 0 6 6 10 13 10 7 0 13 8 14 18 1 11 -6 17 -23 18 -13 1 -21 -2
-18 -7 3 -5 -2 -6 -11 -2 -10 3 -21 0 -26 -8 -7 -11 -9 -10 -9 4 0 15 -3 16
-22 5 -22 -12 -27 -13 -56 -16 -9 -1 -11 -9 -7 -22 6 -20 4 -22 -39 -24 -27
-1 -33 -26 -7 -26 12 0 21 -6 21 -15 0 -8 5 -15 11 -15 6 0 9 7 5 15 -7 18 -4
18 46 3 32 -9 41 -9 48 1 6 10 12 11 26 2 17 -9 17 -10 2 -11 -16 0 -34 -17
-26 -25 2 -2 20 2 41 9 30 10 34 15 24 25 -10 11 -9 13 3 9 15 -5 22 -41 13
-65 -3 -8 -20 -11 -46 -8 -25 2 -45 -1 -49 -8 -6 -9 -10 -9 -16 0 -4 7 -18 11
-30 8 -14 -2 -27 4 -37 18 l-15 21 0 -22 c0 -23 -3 -25 -36 -16 -18 5 -20 14
-22 89 -3 95 3 107 96 207 38 40 70 63 110 79 31 12 62 26 67 30 6 4 33 13 60
20 28 6 59 17 70 24 22 13 95 27 137 26 15 0 30 4 32 8 3 5 23 6 44 4 22 -2
54 2 73 10 29 13 88 15 169 7z m949 -60 c-7 -5 -19 -6 -26 -3 -11 5 -12 8 -2
13 7 5 19 6 26 3 11 -5 12 -8 2 -13z m-104 -30 c-11 -5 -27 -9 -35 -9 -9 0 -8
4 5 9 11 5 27 9 35 9 9 0 8 -4 -5 -9z m-350 -70 c-63 -25 -68 -25 -30 0 17 11
41 20 55 19 19 0 12 -5 -25 -19z m272 14 c-3 -3 -12 -4 -19 -1 -8 3 -5 6 6 6
11 1 17 -2 13 -5z m3119 -9 c4 -8 15 -15 25 -15 10 0 20 -4 20 -10 1 -5 2 -18
3 -27 1 -10 5 -25 10 -33 4 -8 -9 2 -29 24 -32 33 -39 36 -47 22 -5 -9 -20
-16 -33 -16 -33 0 -31 -15 4 -36 15 -9 34 -31 41 -48 9 -23 24 -37 56 -50 24
-10 44 -22 44 -27 0 -5 25 -23 55 -40 30 -17 58 -35 61 -41 10 -15 -28 -50
-40 -38 -8 8 -6 14 4 20 12 8 11 10 -5 7 -11 -1 -26 -6 -32 -10 -7 -5 -18 -5
-23 -2 -16 10 -25 -26 -9 -36 11 -8 10 -13 -8 -28 -12 -10 -20 -21 -17 -24 3
-3 2 -12 -2 -19 -5 -7 -9 -20 -9 -28 0 -8 -14 -17 -31 -20 -17 -4 -40 -15 -52
-26 -11 -10 -34 -30 -49 -45 -15 -14 -36 -28 -46 -32 -17 -6 -17 -8 -2 -23 11
-12 19 -13 29 -5 7 6 16 8 20 4 4 -4 11 -1 16 7 6 10 12 11 22 3 14 -12 65 -6
74 8 3 5 15 0 26 -11 23 -21 48 -27 48 -11 0 6 -5 13 -10 16 -19 12 40 56 80
60 32 3 39 0 49 -21 6 -14 7 -23 3 -20 -5 3 -9 -8 -8 -23 1 -16 4 -27 7 -25 4
2 6 -7 5 -20 0 -14 -6 -22 -13 -19 -7 3 -13 1 -13 -5 0 -5 -17 -15 -37 -21
l-38 -10 37 2 c20 2 34 -1 32 -5 -3 -4 -10 -8 -16 -8 -13 0 -48 -29 -48 -39 0
-4 9 -7 20 -8 11 -1 20 2 20 7 0 4 9 6 20 3 17 -4 19 -11 14 -42 -4 -26 -2
-42 9 -53 11 -10 13 -28 10 -61 -3 -26 0 -66 6 -89 19 -66 19 -157 1 -168 -27
-17 -41 -12 -35 13 15 57 2 157 -20 157 -7 0 -15 -6 -18 -12 -3 -8 -9 -1 -16
15 -6 15 -17 27 -24 27 -8 0 -34 16 -59 35 -27 21 -63 38 -91 44 -45 8 -45 8
-32 -13 8 -12 23 -45 34 -74 12 -29 29 -65 38 -79 43 -65 54 -143 27 -181 -30
-44 -59 -18 -33 30 14 27 14 95 -1 113 -7 8 -9 20 -5 27 4 7 1 6 -7 -3 -7 -9
-26 -19 -41 -23 -15 -3 -25 -11 -22 -16 3 -6 0 -10 -9 -10 -8 0 -17 -6 -19
-12 -3 -7 -6 -8 -6 -2 -1 5 7 19 17 30 21 22 35 101 21 110 -5 3 -9 15 -9 27
0 18 -2 19 -10 7 -5 -8 -10 -10 -10 -5 0 6 4 16 9 24 7 11 1 19 -22 31 -39 21
-44 41 -21 92 14 32 15 43 6 59 -21 34 -51 122 -45 132 3 6 -2 16 -11 23 -21
15 -27 64 -10 81 7 7 15 35 19 61 10 81 27 156 42 185 16 33 10 62 -12 53 -8
-3 -21 1 -29 9 -19 19 -35 19 -42 0 -4 -8 -16 -15 -28 -15 -14 0 -35 -15 -54
-40 -31 -38 -32 -40 -13 -50 23 -12 18 -40 -8 -40 -13 0 -14 2 -2 9 12 8 12
12 -2 26 -10 9 -17 22 -17 28 0 8 -3 8 -11 0 -7 -7 -20 -2 -42 18 -17 16 -34
29 -38 29 -22 0 -79 32 -73 41 4 6 9 7 13 3 13 -18 107 -59 136 -59 33 0 67
29 59 50 -8 19 28 29 38 10 5 -8 13 -15 19 -15 12 0 8 32 -5 41 -5 4 0 10 11
13 25 8 46 52 37 79 -5 16 -3 19 14 15 13 -4 23 0 26 9 4 9 14 13 26 10 13 -3
20 0 20 9 0 14 45 43 68 44 7 0 15 -7 18 -15z m-968 -2 c-10 -2 -26 -2 -35 0
-10 3 -2 5 17 5 19 0 27 -2 18 -5z m-2340 -20 c-10 -2 -18 -9 -18 -15 0 -6 8
-17 18 -24 15 -12 13 -13 -18 -14 -20 0 -30 4 -23 8 8 5 3 11 -17 19 -23 8
-33 8 -47 -3 -24 -18 -52 -19 -35 -1 20 19 73 36 117 35 22 0 32 -2 23 -5z
m2375 -30 c-7 -2 -19 -2 -25 0 -7 3 -2 5 12 5 14 0 19 -2 13 -5z m102 -27 c28
-13 59 -31 70 -41 13 -11 5 -9 -20 5 -22 12 -60 31 -85 41 -25 10 -38 18 -30
18 8 1 38 -10 65 -23z m-1055 -6 c0 -5 -5 -10 -11 -10 -5 0 -7 5 -4 10 3 6 8
10 11 10 2 0 4 -4 4 -10z m-1642 -66 c-3 -40 -18 -58 -18 -20 0 25 9 56 16 56
3 0 4 -16 2 -36z m2472 -5 c0 -6 -4 -7 -10 -4 -5 3 -10 11 -10 16 0 6 5 7 10
4 6 -3 10 -11 10 -16z m-3206 -4 c-4 -8 -14 -15 -23 -15 -14 1 -13 3 3 15 25
19 27 19 20 0z m107 -5 c5 0 9 -4 9 -10 0 -14 -13 -12 -36 6 -17 14 -17 15 -1
10 10 -3 23 -6 28 -6z m3869 0 c0 -5 -2 -10 -4 -10 -3 0 -8 5 -11 10 -3 6 -1
10 4 10 6 0 11 -4 11 -10z m-3390 -21 c0 -6 -4 -7 -10 -4 -5 3 -10 11 -10 16
0 6 5 7 10 4 6 -3 10 -11 10 -16z m-70 -4 c0 -3 -8 -17 -17 -32 -14 -21 -14
-25 -3 -21 8 3 14 11 12 18 -2 7 5 9 18 6 11 -3 29 -9 40 -12 11 -3 20 -14 20
-24 0 -32 -34 -33 -91 -2 -50 27 -74 52 -50 52 6 0 11 -5 11 -11 0 -8 5 -8 15
1 8 7 12 16 9 21 -3 5 4 9 15 9 12 0 21 -2 21 -5z m2729 -48 c47 -101 81 -181
78 -184 -2 -1 -28 51 -59 117 -31 66 -53 120 -50 120 4 0 18 -24 31 -53z m434
46 c-7 -2 -21 -2 -30 0 -10 3 -4 5 12 5 17 0 24 -2 18 -5z m-3254 -7 c-19 -17
-47 -23 -60 -14 -12 8 -11 9 2 5 9 -3 22 -1 30 4 13 8 37 13 28 5z m491 -28
c0 -5 -7 -3 -15 6 -8 8 -15 18 -15 22 0 3 7 1 15 -6 8 -7 15 -17 15 -22z
m2828 25 c-10 -2 -26 -2 -35 0 -10 3 -2 5 17 5 19 0 27 -2 18 -5z m-3818 -30
c0 -8 5 -11 13 -7 6 4 8 3 4 -1 -22 -24 -61 -8 -50 21 6 17 33 6 33 -13z m810
20 c0 -5 -5 -15 -10 -23 -8 -12 -10 -11 -10 8 0 12 5 22 10 22 6 0 10 -3 10
-7z m2200 -2 c0 -9 -20 -37 -20 -29 0 3 -2 13 -5 21 -4 8 0 14 10 14 8 0 15
-3 15 -6z m-2040 -21 c0 -5 -5 -10 -11 -10 -5 0 -7 5 -4 10 3 6 8 10 11 10 2
0 4 -4 4 -10z m2905 0 c12 -5 14 -9 6 -9 -11 -1 -10 -5 5 -15 18 -14 18 -15
-9 -25 -35 -13 -97 -14 -117 -1 -8 5 -12 10 -10 12 11 8 78 28 96 29 10 1 1 5
-21 9 l-40 7 35 1 c19 0 44 -3 55 -8z m-3830 -20 c3 -5 -1 -10 -10 -10 -9 0
-13 5 -10 10 3 6 8 10 10 10 2 0 7 -4 10 -10z m3678 0 c10 0 17 -8 17 -20 0
-18 -7 -20 -74 -20 -83 0 -116 7 -94 21 10 7 8 9 -7 10 l-20 0 20 9 c11 5 47
7 80 5 33 -2 68 -4 78 -5z m-1887 -44 c4 -26 2 -36 -5 -31 -6 3 -11 22 -11 42
0 45 8 39 16 -11z m-1018 6 c3 -17 -2 -22 -17 -22 -14 0 -21 6 -21 18 0 38 33
41 38 4z m-844 9 c4 -5 -3 -7 -14 -4 -23 6 -26 13 -6 13 8 0 17 -4 20 -9z
m611 -1 c3 -6 -4 -10 -17 -10 -18 0 -20 2 -8 10 19 12 18 12 25 0z m28 -35
c-3 -9 -8 -14 -10 -11 -3 3 -2 9 2 15 9 16 15 13 8 -4z m858 -12 c12 -14 12
-16 -1 -11 -11 4 -16 0 -16 -13 0 -11 4 -19 8 -19 4 0 8 -7 8 -15 0 -19 -17
-19 -50 0 -17 10 -20 14 -9 15 21 0 34 30 15 30 -22 0 -46 -11 -42 -19 3 -4
-5 -8 -16 -8 l-21 -2 20 21 c11 11 36 24 54 28 19 4 35 8 35 9 1 1 8 -7 15
-16z m860 0 c13 -17 13 -17 -6 -3 -11 8 -22 16 -24 17 -2 2 0 3 6 3 6 0 17 -8
24 -17z m-2391 -2 c0 -6 -4 -13 -10 -16 -5 -3 -10 1 -10 9 0 9 5 16 10 16 6 0
10 -4 10 -9z m1423 2 c-7 -2 -19 -2 -25 0 -7 3 -2 5 12 5 14 0 19 -2 13 -5z
m-1463 -27 c0 -2 -7 -6 -15 -10 -8 -3 -15 -1 -15 4 0 6 7 10 15 10 8 0 15 -2
15 -4z m1190 -16 c12 -23 7 -25 -21 -9 -11 5 -17 14 -14 20 10 15 23 11 35
-11z m2920 -13 c0 -5 -4 -5 -10 -2 -5 3 -10 14 -10 23 0 15 2 15 10 2 5 -8 10
-19 10 -23z m-650 3 c0 -5 -5 -10 -11 -10 -5 0 -7 5 -4 10 3 6 8 10 11 10 2 0
4 -4 4 -10z m-3730 -9 c0 -5 -7 -12 -16 -15 -14 -5 -15 -4 -4 9 14 17 20 19
20 6z m57 -7 c-3 -3 -12 -4 -19 -1 -8 3 -5 6 6 6 11 1 17 -2 13 -5z m4403 -27
c0 -9 -15 -44 -54 -127 -17 -35 -16 -32 4 50 5 19 12 52 15 73 5 32 9 36 21
27 8 -7 14 -17 14 -23z m-2933 17 c-3 -3 -12 -4 -19 -1 -8 3 -5 6 6 6 11 1 17
-2 13 -5z m213 -16 c12 -8 11 -8 -3 -4 -10 3 -58 7 -105 8 -86 1 -86 1 -27 8
65 7 111 3 135 -12z m1960 12 c0 -5 -2 -10 -4 -10 -3 0 -8 5 -11 10 -3 6 -1
10 4 10 6 0 11 -4 11 -10z m663 -33 c-5 -36 -23 -52 -23 -22 0 16 22 67 26 62
2 -2 1 -20 -3 -40z m-2444 9 c10 -12 8 -13 -8 -9 -12 3 -21 9 -21 14 0 14 16
11 29 -5z m-1910 -7 c-12 -7 -12 -10 -1 -18 10 -6 7 -10 -13 -15 -32 -8 -39
-4 -31 21 3 11 16 19 32 20 20 1 23 -1 13 -8z m336 1 c3 -5 1 -10 -4 -10 -6 0
-11 5 -11 10 0 6 2 10 4 10 3 0 8 -4 11 -10z m-195 -10 c0 -5 -2 -10 -4 -10
-3 0 -8 5 -11 10 -3 6 -1 10 4 10 6 0 11 -4 11 -10z m450 -4 c0 -3 -4 -8 -10
-11 -5 -3 -10 -1 -10 4 0 6 5 11 10 11 6 0 10 -2 10 -4z m3188 -31 c-3 -3 -9
2 -12 12 -6 14 -5 15 5 6 7 -7 10 -15 7 -18z m-3228 -45 c0 -5 -4 -10 -10 -10
-5 0 -10 5 -10 10 0 6 5 10 10 10 6 0 10 -4 10 -10z m3200 -11 c0 -6 -4 -7
-10 -4 -5 3 -10 11 -10 16 0 6 5 7 10 4 6 -3 10 -11 10 -16z m-3471 -3 c14
-16 5 -23 -26 -20 -13 0 -23 -3 -23 -7 0 -5 5 -9 10 -9 6 0 10 -5 10 -12 0 -8
-6 -6 -17 5 -16 15 -16 18 2 37 21 24 29 25 44 6z m155 -1 c19 -14 19 -15 -7
-15 -17 0 -27 5 -27 15 0 19 9 19 34 0z m3031 -5 c29 -6 19 -7 -40 -3 -44 3
-82 7 -84 9 -8 7 84 3 124 -6z m-3076 -21 c3 -11 1 -12 -11 -2 -8 7 -19 9 -23
5 -5 -4 -5 -1 -1 6 9 16 28 11 35 -9z m1531 16 c0 -2 -15 -12 -32 -20 l-33
-16 24 21 c22 19 41 26 41 15z m1693 -12 c-7 -2 -19 -2 -25 0 -7 3 -2 5 12 5
14 0 19 -2 13 -5z m65 0 c-10 -2 -26 -2 -35 0 -10 3 -2 5 17 5 19 0 27 -2 18
-5z m89 -20 c-2 -1 -14 1 -27 4 -22 6 -22 7 -4 13 15 6 40 -8 31 -17z m-3567
7 c0 -5 -7 -7 -15 -4 -8 4 -15 8 -15 10 0 2 7 4 15 4 8 0 15 -4 15 -10z m1821
0 c15 -9 17 -15 9 -30 -13 -23 -29 -25 -55 -6 -11 8 -16 19 -12 30 7 18 30 21
58 6z m1299 -10 c-8 -5 -19 -10 -25 -10 -5 0 -3 5 5 10 8 5 20 10 25 10 6 0 3
-5 -5 -10z m67 4 c-3 -3 -12 -4 -19 -1 -8 3 -5 6 6 6 11 1 17 -2 13 -5z
m-2692 -24 c3 -5 1 -10 -4 -10 -6 0 -11 5 -11 10 0 6 2 10 4 10 3 0 8 -4 11
-10z m3124 -23 c0 -21 -1 -21 -9 -2 -12 28 -12 37 0 30 6 -3 10 -16 9 -28z
m1428 27 c-3 -3 -12 -4 -19 -1 -8 3 -5 6 6 6 11 1 17 -2 13 -5z m-1744 -23 c9
-9 9 -11 -3 -6 -9 3 -58 10 -110 15 l-95 9 98 -3 c59 -2 103 -8 110 -15z m226
-7 c2 -2 -45 -3 -105 -2 -90 1 -100 2 -54 8 51 6 149 2 159 -6z m80 -29 c12
-15 13 -17 1 -9 -8 6 -28 16 -45 22 -26 9 -27 11 -7 11 12 1 22 7 23 14 0 7 3
6 6 -3 3 -8 13 -24 22 -35z m-1994 26 c-10 -17 54 -41 81 -31 26 10 34 -6 13
-27 -8 -8 -8 -13 0 -17 6 -4 11 -3 11 1 0 5 9 9 20 9 25 0 25 -7 2 -33 -17
-21 -18 -20 -62 23 -25 25 -55 47 -67 50 -25 7 -30 20 -10 27 18 8 19 8 12 -2z
m3445 -1 c0 -5 -6 -10 -14 -10 -8 0 -18 5 -21 10 -3 6 3 10 14 10 12 0 21 -4
21 -10z m-3390 -16 c0 -8 -4 -12 -10 -9 -5 3 -10 10 -10 16 0 5 5 9 10 9 6 0
10 -7 10 -16z m-1317 -1 c-7 -2 -19 -2 -25 0 -7 3 -2 5 12 5 14 0 19 -2 13 -5z
m4747 -1 c0 -4 -9 -8 -20 -9 -11 -1 -18 2 -15 8 7 11 35 12 35 1z m-4580 -12
c0 -5 -5 -10 -11 -10 -5 0 -7 5 -4 10 3 6 8 10 11 10 2 0 4 -4 4 -10z m2690
-94 c0 -5 -7 -3 -15 4 -8 7 -15 18 -15 25 0 7 -7 18 -15 25 -8 7 -15 17 -15
23 0 12 59 -64 60 -77z m1918 67 c-2 -10 -12 -19 -23 -20 -11 -2 -14 0 -7 3 6
3 12 12 12 20 0 8 5 14 11 14 6 0 9 -8 7 -17z m-4505 -21 c-3 -12 -9 -22 -14
-22 -5 0 -19 -11 -31 -25 -12 -14 -26 -25 -31 -25 -4 0 -2 6 5 14 7 8 26 30
43 49 33 40 37 41 28 9z m67 -32 c0 -5 -2 -10 -4 -10 -3 0 -8 5 -11 10 -3 6
-1 10 4 10 6 0 11 -4 11 -10z m4423 -7 c-7 -2 -19 -2 -25 0 -7 3 -2 5 12 5 14
0 19 -2 13 -5z m-4693 -13 c0 -5 -2 -10 -4 -10 -3 0 -8 5 -11 10 -3 6 -1 10 4
10 6 0 11 -4 11 -10z m-65 -10 c-3 -5 -11 -10 -16 -10 -6 0 -7 5 -4 10 3 6 11
10 16 10 6 0 7 -4 4 -10z m35 0 c0 -5 -4 -10 -10 -10 -5 0 -10 5 -10 10 0 6 5
10 10 10 6 0 10 -4 10 -10z m1389 -34 c-2 -2 -13 8 -23 22 l-19 27 24 -22 c12
-12 21 -24 18 -27z m-341 14 c30 -22 68 -22 83 1 7 11 9 11 9 1 0 -7 5 -10 11
-6 6 3 10 -1 9 -12 -1 -11 -1 -21 0 -24 1 -3 3 -21 6 -40 2 -19 9 -39 14 -44
19 -19 11 -46 -12 -46 -20 -1 -18 -4 12 -20 l35 -19 -40 -1 -40 -2 35 -13 35
-13 -45 -1 c-25 0 -52 4 -60 9 -13 8 -13 10 1 10 9 0 19 10 23 23 10 38 7 44
-19 39 -14 -2 -32 2 -41 9 -13 10 -17 10 -24 -2 -7 -11 -12 -11 -22 -1 -6 6
-28 12 -47 13 -20 0 -45 4 -56 9 -18 7 -18 8 7 15 15 4 33 13 39 21 7 8 15 11
18 6 3 -5 17 -13 30 -17 26 -8 25 -15 6 88 -9 43 -5 45 33 17z m380 -75 c-3
-3 -13 7 -23 22 l-17 28 23 -22 c12 -12 20 -25 17 -28z m-1613 -15 c3 -5 1
-10 -4 -10 -6 0 -11 5 -11 10 0 6 2 10 4 10 3 0 8 -4 11 -10z m840 0 c3 -5 1
-10 -4 -10 -6 0 -11 5 -11 10 0 6 2 10 4 10 3 0 8 -4 11 -10z m1829 -30 c12
-26 12 -30 0 -30 -8 0 -14 3 -14 8 0 4 -3 17 -6 30 -9 31 2 27 20 -8z m-2614
10 c0 -5 -4 -10 -9 -10 -6 0 -13 5 -16 10 -3 6 1 10 9 10 9 0 16 -4 16 -10z
m1589 -30 c11 -24 11 -24 -3 -6 -9 11 -16 24 -16 30 0 12 5 7 19 -24z m-1432
14 c-3 -3 -12 -4 -19 -1 -8 3 -5 6 6 6 11 1 17 -2 13 -5z m3068 -4 c3 -5 17
-10 31 -10 13 0 24 5 24 10 0 6 3 10 8 10 12 0 9 -94 -4 -105 -6 -5 -20 -26
-32 -45 l-21 -36 37 4 c33 3 35 1 17 -9 -35 -22 -294 -16 -287 7 1 5 6 9 10 9
22 0 115 60 119 76 3 11 12 19 20 19 9 0 13 6 10 15 -4 8 -2 17 4 21 5 3 7 14
4 25 -5 16 -1 19 24 19 16 0 33 -4 36 -10z m-585 -41 c-95 -82 -134 -125 -136
-146 -4 -46 -4 -47 -15 -36 -20 20 0 62 59 120 51 50 108 93 122 93 3 0 -11
-14 -30 -31z m-1543 9 c43 -6 72 -13 66 -15 -21 -7 -15 -33 10 -44 21 -9 21
-9 -3 -4 -14 4 -65 13 -115 20 l-90 14 88 -5 c56 -4 87 -2 87 4 0 13 -23 19
-78 21 -23 1 -53 6 -65 11 l-22 9 22 0 c12 1 57 -4 100 -11z m523 -43 c0 -5
-5 -3 -10 5 -5 8 -10 20 -10 25 0 6 5 3 10 -5 5 -8 10 -19 10 -25z m-250 1 c0
-3 -4 -8 -10 -11 -5 -3 -10 -1 -10 4 0 6 5 11 10 11 6 0 10 -2 10 -4z m-132
-48 c-2 -7 12 -17 31 -23 28 -10 31 -13 15 -19 -15 -6 -16 -9 -4 -16 8 -5 11
-12 7 -16 -4 -4 0 -12 7 -18 9 -7 11 -18 6 -31 -8 -19 -9 -19 -9 2 -1 17 -10
25 -41 33 -41 11 -46 30 -9 30 11 0 18 4 14 10 -3 5 -11 7 -18 5 -30 -9 -115
-12 -128 -4 -11 7 -10 11 6 23 11 9 31 16 45 16 20 0 22 2 10 10 -11 7 -4 10
28 10 27 0 41 -4 40 -12z m1607 2 c16 0 25 -32 14 -52 -5 -9 -20 -19 -34 -22
-16 -4 -22 -11 -19 -21 4 -9 -2 -18 -17 -24 -17 -7 -19 -10 -7 -10 31 -2 30
-21 0 -21 -26 0 -29 3 -25 23 3 12 12 27 20 33 12 10 11 12 -1 17 -13 5 -12
12 6 47 14 26 27 39 36 35 7 -3 19 -5 27 -5z m2009 -21 c-3 -5 -14 -9 -26 -9
-17 0 -18 3 -8 14 12 15 44 10 34 -5z m-3287 5 c-3 -3 -12 -4 -19 -1 -8 3 -5
6 6 6 11 1 17 -2 13 -5z m64 -77 c-7 -7 -9 2 -6 29 5 52 7 55 12 15 3 -18 0
-38 -6 -44z m-596 53 c3 -5 -1 -10 -9 -10 -9 0 -16 5 -16 10 0 6 4 10 9 10 6
0 13 -4 16 -10z m2355 -27 c0 -18 -35 -16 -50 2 -7 8 -10 16 -6 16 3 1 10 2
15 3 5 0 13 4 17 9 8 8 24 -11 24 -30z m1410 33 c0 -11 -19 -15 -25 -6 -3 5 1
10 9 10 9 0 16 -2 16 -4z m-3967 -84 c4 -21 3 -31 -3 -27 -6 3 -10 20 -10 37
0 38 5 34 13 -10z m652 29 c3 -5 1 -12 -5 -16 -5 -3 -10 1 -10 9 0 18 6 21 15
7z m1685 -10 c0 -22 -48 -29 -115 -16 -34 6 -32 8 25 15 86 11 90 11 90 1z
m-2015 -53 c-8 -62 -29 -101 -53 -96 -21 4 -27 53 -12 92 8 21 15 27 30 23 11
-3 20 -1 20 4 0 5 -7 9 -16 9 -8 0 -12 5 -9 10 3 6 15 10 27 10 18 0 19 -4 13
-52z m462 20 c-3 -8 -6 -5 -6 6 -1 11 2 17 5 13 3 -3 4 -12 1 -19z m860 -55
c0 -87 7 -163 15 -163 13 0 20 -62 8 -73 -10 -9 -11 -7 -7 12 3 14 -1 34 -10
48 -19 28 -33 233 -16 233 5 0 9 -26 10 -57z m631 40 c-21 -2 -57 -2 -80 0
-24 2 -7 4 37 4 44 0 63 -2 43 -4z m1252 -58 c7 -25 10 -48 6 -52 -3 -3 -6 2
-6 13 0 11 -9 37 -20 59 -24 46 -24 51 -6 36 7 -6 19 -32 26 -56z m-3057 36
c-14 -13 -29 -18 -43 -14 -22 6 -22 7 -5 20 11 7 30 13 44 13 l25 0 -21 -19z
m194 -26 c-4 -8 -12 -15 -19 -14 -10 0 -10 2 0 6 6 2 12 12 12 21 0 8 3 13 6
9 4 -3 4 -13 1 -22z m1003 10 c0 -8 -4 -15 -10 -15 -5 0 -7 7 -4 15 4 8 8 15
10 15 2 0 4 -7 4 -15z m870 -10 c0 -9 7 -18 15 -21 16 -6 20 -41 7 -61 -12
-19 -74 -13 -79 8 -3 11 -9 16 -14 13 -5 -3 -9 2 -9 10 0 9 -7 16 -15 16 -8 0
-15 5 -15 10 0 6 6 10 14 10 7 0 27 7 42 15 37 19 54 19 54 0z m-1732 -20 c-3
-3 -9 2 -12 12 -6 14 -5 15 5 6 7 -7 10 -15 7 -18z m16 -32 c8 -20 -21 -123
-34 -123 -14 0 -12 97 2 120 16 24 24 25 32 3z m3145 -17 c-3 -3 -11 5 -18 17
-13 21 -12 21 5 5 10 -10 16 -20 13 -22z m-3479 5 c0 -5 -10 -11 -22 -14 -22
-6 -22 -6 -4 8 23 17 26 18 26 6z m3390 -21 c0 -5 -4 -10 -10 -10 -5 0 -10 -6
-10 -14 0 -8 -4 -17 -8 -20 -5 -3 -6 8 -4 25 4 26 32 43 32 19z m-3043 -47
c-3 -10 -5 -4 -5 12 0 17 2 24 5 18 2 -7 2 -21 0 -30z m1651 14 c5 -24 -15
-21 -21 4 -3 13 -1 19 6 16 7 -2 13 -11 15 -20z m1472 7 c0 -8 -4 -12 -10 -9
-5 3 -10 10 -10 16 0 5 5 9 10 9 6 0 10 -7 10 -16z m-4765 -14 c-4 -6 5 -24
19 -41 14 -17 26 -37 26 -45 0 -8 5 -14 10 -14 18 0 11 -19 -12 -31 -12 -6
-42 -13 -68 -16 l-46 -4 26 81 c14 46 31 80 38 80 7 0 10 -5 7 -10z m2825 -22
c0 -5 -4 -8 -10 -8 -5 0 -10 10 -10 23 0 18 2 19 10 7 5 -8 10 -18 10 -22z
m440 11 c0 -5 -4 -9 -10 -9 -5 0 -10 7 -10 16 0 8 5 12 10 9 6 -3 10 -10 10
-16z m-215 -7 c-3 -3 -11 0 -18 7 -9 10 -8 11 6 5 10 -3 15 -9 12 -12z m1721
-45 c-4 -16 1 -28 14 -40 12 -10 17 -23 13 -33 -4 -12 -3 -15 5 -10 8 4 15 -1
20 -14 23 -61 -17 -161 -73 -184 -39 -16 -46 -27 -15 -21 24 5 26 -8 5 -25 -8
-7 -15 -17 -15 -22 0 -5 -15 -41 -34 -81 -28 -60 -64 -155 -82 -216 -8 -27
-44 58 -73 172 -29 113 -72 257 -86 290 -5 13 -2 17 15 17 13 0 19 -4 14 -12
-4 -6 -3 -9 2 -6 5 3 17 8 27 11 16 6 16 8 -3 27 -23 23 -46 26 -53 8 -2 -7
-11 10 -19 37 -15 50 -15 50 11 67 14 10 32 18 39 18 6 0 12 5 12 10 0 6 5 10
10 10 6 0 10 -9 10 -19 0 -11 6 -22 13 -24 9 -4 8 -8 -3 -16 -8 -6 -16 -22
-17 -36 -2 -23 0 -25 13 -14 12 10 16 9 21 -9 7 -28 11 -27 53 8 19 17 38 30
42 30 16 0 58 44 58 62 0 10 3 17 8 16 4 0 14 1 22 5 16 6 43 15 49 16 2 1 1
-9 -3 -22z m-121 -37 c-4 -6 -12 -9 -18 -7 -7 2 -18 -3 -25 -12 -8 -9 -11 -11
-8 -4 4 6 -2 14 -11 16 -14 4 -13 5 5 6 12 0 22 6 22 12 0 5 5 7 10 4 6 -3 10
-1 10 6 0 10 3 10 11 2 6 -6 8 -16 4 -23z m-3000 10 c-3 -5 -11 -10 -16 -10
-6 0 -7 5 -4 10 3 6 11 10 16 10 6 0 7 -4 4 -10z m2672 -12 c-3 -8 -6 -5 -6 6
-1 11 2 17 5 13 3 -3 4 -12 1 -19z m-2690 -55 c-3 -10 -5 -2 -5 17 0 19 2 27
5 18 2 -10 2 -26 0 -35z m2676 41 c11 -11 -14 -49 -47 -72 -28 -19 -86 -28
-86 -12 0 3 25 18 55 34 30 16 55 35 55 42 0 14 12 19 23 8z m-1818 -53 c-3
-11 -1 -22 5 -26 5 -3 10 -19 10 -35 0 -17 4 -49 10 -72 32 -142 43 -196 46
-218 5 -49 13 -91 23 -123 5 -17 19 -81 31 -142 22 -111 39 -190 65 -300 18
-77 18 -97 -1 -62 -9 16 -12 37 -8 49 5 15 3 19 -7 13 -8 -5 -11 -5 -7 -1 3 4
0 29 -8 54 -8 26 -17 70 -19 97 -3 28 -14 82 -25 120 -25 92 -60 255 -60 280
0 11 -7 40 -15 64 -9 24 -13 52 -9 63 4 15 3 18 -6 13 -9 -6 -11 3 -8 34 2 22
1 41 -3 41 -7 0 -29 136 -29 178 1 23 2 25 11 9 6 -9 8 -26 4 -36z m565 39 c8
-5 11 -10 5 -10 -5 0 -17 5 -25 10 -8 5 -10 10 -5 10 6 0 17 -5 25 -10z
m-2287 -69 c-1 -27 -4 -54 -8 -60 -3 -6 -3 -17 2 -23 13 -21 12 -35 -3 -35 -8
0 -14 4 -14 8 0 3 -10 9 -22 12 -18 5 -19 8 -9 21 8 9 17 14 21 11 5 -3 11 -1
15 5 3 5 2 10 -2 10 -5 0 -14 10 -22 21 -11 18 -11 23 1 30 7 5 13 12 14 16 2
17 17 44 22 39 3 -3 5 -28 5 -55z m854 -33 c-3 -7 -5 -2 -5 12 0 14 2 19 5 13
2 -7 2 -19 0 -25z m-22 -112 c-9 -42 -19 -76 -22 -76 -7 0 7 90 20 127 19 55
20 28 2 -51z m-33 -118 c-7 -7 -12 -8 -12 -2 0 14 12 26 19 19 2 -3 -1 -11 -7
-17z m3308 -48 c0 -5 -9 -14 -20 -20 -24 -13 -26 -7 -4 14 18 18 24 20 24 6z
m-3905 -10 c3 -5 2 -10 -4 -10 -5 0 -13 5 -16 10 -3 6 -2 10 4 10 5 0 13 -4
16 -10z m3863 -105 c1 -14 -3 -25 -8 -25 -11 0 -14 33 -3 43 9 9 8 10 11 -18z
m42 -6 c0 -5 -4 -7 -10 -4 -5 3 -10 1 -10 -6 0 -7 -3 -10 -6 -6 -8 7 4 27 17
27 5 0 9 -5 9 -11z m-3512 -50 c4 -43 -26 -86 -51 -76 -21 8 -22 37 -2 83 20
47 49 44 53 -7z m3554 10 c-21 -24 -22 -24 -20 5 2 16 7 22 19 19 16 -5 16 -6
1 -24z m-1262 1 c5 8 11 12 14 10 13 -14 56 -166 66 -236 6 -43 18 -112 27
-152 16 -70 16 -73 -4 -100 -11 -15 -28 -32 -39 -37 -10 -6 -30 -16 -42 -24
l-24 -13 23 -21 c15 -14 24 -17 27 -9 2 7 12 12 21 12 14 0 17 6 13 25 -4 25
11 35 23 15 4 -6 11 -8 16 -4 5 3 7 10 4 15 -4 5 -1 9 5 9 6 0 20 -21 31 -47
22 -51 115 -183 130 -183 15 0 10 -17 -7 -24 -9 -3 -25 5 -40 21 -19 21 -33
27 -58 25 -30 -3 -33 -1 -31 22 2 14 -1 26 -6 26 -6 0 -9 6 -8 13 4 30 -2 47
-16 47 -18 0 -20 -17 -2 -23 6 -2 9 -8 5 -12 -7 -8 -78 15 -78 26 0 4 -9 9
-20 12 -11 3 -20 12 -20 22 0 9 -6 15 -12 13 -7 -1 -25 1 -39 5 -48 13 -44 99
6 139 20 16 23 23 14 29 -8 5 -17 3 -21 -4 -5 -7 -8 -1 -8 16 0 29 14 37 24
12 3 -8 10 -15 17 -15 6 0 9 7 5 15 -7 20 3 45 19 45 15 0 14 16 -2 46 -7 11
-10 30 -7 41 3 12 1 24 -5 27 -16 10 -13 26 4 26 8 0 15 9 15 19 0 10 7 21 15
24 12 5 12 10 0 34 -8 15 -15 35 -15 43 0 12 -2 12 -9 2 -6 -10 -11 -5 -21 17
-6 17 -18 36 -26 42 -8 6 -14 16 -14 22 0 5 9 2 21 -9 17 -15 22 -16 29 -4z
m-2402 -3 c14 -16 -11 -57 -34 -57 -17 0 -17 -1 -3 39 12 34 21 38 37 18z
m-1324 -48 l30 -29 -25 0 c-13 0 -41 13 -61 29 l-37 28 31 1 c22 1 41 -8 62
-29z m3688 -31 c-10 -22 -11 -21 -11 12 -1 26 2 31 11 22 8 -8 8 -17 0 -34z
m1253 2 c3 -5 1 -10 -4 -10 -6 0 -11 5 -11 10 0 6 2 10 4 10 3 0 8 -4 11 -10z
m-125 -185 c17 -21 5 -31 -15 -12 -8 9 -15 18 -15 21 0 11 18 6 30 -9z m-1096
-11 c21 -20 20 -21 -6 -19 -13 1 -24 9 -26 18 -4 21 12 22 32 1z m-3484 -36
c0 -6 -6 -5 -15 2 -8 7 -15 14 -15 16 0 2 7 1 15 -2 8 -4 15 -11 15 -16z
m4620 -9 c0 -6 -4 -7 -10 -4 -5 3 -10 11 -10 16 0 6 5 7 10 4 6 -3 10 -11 10
-16z m-4585 -19 c10 -11 13 -20 7 -20 -6 0 -16 9 -22 20 -6 11 -9 20 -7 20 2
0 12 -9 22 -20z m-104 -2 c46 -13 52 -26 9 -20 -26 4 -30 1 -30 -18 0 -19 -2
-20 -15 -10 -13 11 -14 10 -9 -5 6 -15 2 -14 -24 5 -33 25 -43 44 -17 34 11
-5 13 -2 9 10 -8 20 21 21 77 4z m-343 -48 c8 0 25 -9 39 -20 14 -11 31 -20
38 -20 7 0 18 -12 24 -27 6 -16 16 -36 23 -45 20 -27 7 -28 -67 -2 -38 13 -78
24 -87 24 -10 0 -18 4 -18 9 0 5 -9 11 -20 14 -22 6 -26 31 -10 71 9 24 11 25
37 11 15 -8 34 -15 41 -15z m1403 -83 c-13 -13 -26 -3 -16 12 3 6 11 8 17 5 6
-4 6 -10 -1 -17z m1559 -103 c0 -14 -4 -23 -9 -20 -5 3 -7 15 -4 26 7 28 13
25 13 -6z m-2830 -30 c19 -3 46 -18 60 -32 14 -13 40 -31 58 -39 42 -18 41
-31 -5 -39 -21 -4 -45 -12 -53 -19 -26 -21 -53 -26 -62 -13 -7 10 -11 9 -22
-4 -7 -10 -16 -15 -20 -11 -4 4 -11 1 -17 -7 -7 -11 -8 -6 -3 15 4 17 8 32 10
34 2 2 -6 20 -17 39 -31 59 -22 97 21 87 8 -2 31 -7 50 -11z m4745 -14 c8 -13
-1 -13 -26 0 -10 6 -19 15 -19 21 0 11 35 -5 45 -21z m-1896 -36 c7 -26 10
-49 7 -51 -2 -3 2 -20 10 -38 8 -19 14 -40 14 -47 -1 -22 -30 40 -40 84 -5 24
-12 55 -16 71 -4 16 -2 27 4 27 5 0 15 -21 21 -46z m-1723 -29 c3 -14 10 -25
15 -25 5 0 9 -4 9 -10 0 -5 -6 -10 -13 -10 -8 0 -19 -11 -25 -25 -26 -57 -53
-1 -28 59 18 42 33 46 42 11z m3399 5 c-3 -5 -10 -10 -16 -10 -5 0 -9 5 -9 10
0 6 7 10 16 10 8 0 12 -4 9 -10z m195 -8 c0 -4 -13 -13 -29 -20 -25 -11 -37
-11 -72 1 -50 17 -31 28 25 14 32 -8 40 -7 48 7 9 15 28 14 28 -2z m-954 -34
c1 -11 -4 -18 -13 -18 -9 0 -13 6 -10 14 4 11 1 13 -10 9 -11 -4 -14 -3 -9 6
11 17 39 9 42 -11z m117 15 c-15 -5 -18 -43 -4 -43 5 0 11 -7 15 -15 4 -12 0
-14 -22 -9 l-27 6 25 -21 c18 -14 27 -16 32 -8 6 9 8 9 8 -1 0 -7 5 -10 10 -7
6 3 10 1 10 -4 0 -6 -4 -11 -10 -11 -5 0 -10 -7 -10 -15 0 -21 30 -31 42 -14
8 12 9 12 6 0 -7 -23 -59 -37 -72 -19 -6 8 -21 18 -33 22 -12 4 -27 21 -34 39
-7 18 -14 34 -16 37 -1 3 2 12 7 20 9 13 11 13 19 0 10 -15 10 -16 26 35 2 8
12 15 22 14 11 0 13 -3 6 -6z m-69 -11 c5 -9 -22 -48 -29 -41 -2 3 -2 15 2 27
5 22 18 29 27 14z m-3991 -62 c7 0 23 -9 36 -19 20 -15 30 -17 52 -9 19 7 44
6 76 -2 55 -13 97 -14 101 -1 2 5 18 5 37 1 20 -5 33 -4 29 1 -3 5 -14 9 -24
9 -13 0 -17 5 -14 15 7 17 54 21 54 5 0 -5 15 -10 34 -10 39 0 52 -13 54 -57
3 -37 -11 -48 -51 -45 -16 2 -54 -7 -84 -18 -64 -24 -63 -24 -63 -5 0 10 -10
15 -32 15 -17 0 -50 9 -73 20 -22 11 -56 21 -74 23 -48 6 -101 51 -101 86 0
38 13 48 23 17 5 -14 14 -26 20 -26z m3895 28 c-6 -18 -28 -21 -28 -4 0 9 7
16 16 16 9 0 14 -5 12 -12z m289 -46 c-9 -10 -17 -24 -17 -31 0 -7 -5 -9 -11
-6 -6 4 -8 13 -5 20 2 7 -1 18 -7 24 -8 8 -8 11 1 11 7 0 12 9 12 20 l0 21 22
-20 c20 -19 20 -22 5 -39z m-254 -94 c-4 -9 -45 5 -44 15 1 4 1 14 1 24 0 13
5 11 23 -8 13 -13 22 -27 20 -31z"/>
<path d="M1591 5324 c0 -11 3 -14 6 -6 3 7 2 16 -1 19 -3 4 -6 -2 -5 -13z"/>
<path d="M1595 5240 c-3 -5 -1 -10 4 -10 6 0 11 5 11 10 0 6 -2 10 -4 10 -3 0
-8 -4 -11 -10z"/>
<path d="M1645 4700 c-13 -6 -15 -9 -5 -9 8 0 22 4 30 9 18 12 2 12 -25 0z"/>
<path d="M4360 4919 c0 -5 5 -7 10 -4 6 3 10 8 10 11 0 2 -4 4 -10 4 -5 0 -10
-5 -10 -11z"/>
<path d="M2778 4335 c-3 -3 -34 -7 -69 -9 -165 -11 -248 -70 -214 -151 7 -16
18 -43 24 -59 9 -22 15 -26 23 -18 17 17 48 15 48 -2 0 -15 27 -29 40 -21 4 2
43 7 86 10 92 7 108 11 99 25 -4 6 -3 10 2 9 4 -1 28 7 53 19 25 12 55 22 67
22 12 0 25 5 28 10 3 6 2 10 -3 10 -5 0 -7 11 -5 25 4 20 0 25 -22 31 -16 4
-34 3 -42 -2 -8 -5 -50 -8 -94 -6 l-79 4 30 24 c34 29 148 51 179 35 9 -5 23
-6 30 -2 21 14 -10 29 -74 36 -33 3 -69 8 -81 10 -12 3 -23 2 -26 0z"/>
<path d="M2179 4222 c-86 -20 -158 -52 -191 -82 -20 -19 -38 -42 -39 -50 -5
-45 3 -67 30 -83 28 -17 30 -17 41 0 9 15 10 14 4 -7 -3 -14 -11 -31 -16 -37
-8 -10 1 -13 38 -13 27 0 72 -1 99 -2 38 -2 66 5 118 30 62 29 85 52 55 52 -7
0 -5 5 5 11 9 5 22 7 27 4 11 -7 12 65 1 105 -11 40 -118 85 -172 72z m-16
-112 c8 -7 -80 -43 -115 -46 -9 -1 -23 -4 -32 -7 -19 -8 -20 2 -2 26 28 37
122 54 149 27z m20 -117 c-7 -2 -19 -2 -25 0 -7 3 -2 5 12 5 14 0 19 -2 13 -5z"/>
<path d="M1235 4440 c3 -5 8 -10 11 -10 2 0 4 5 4 10 0 6 -5 10 -11 10 -5 0
-7 -4 -4 -10z"/>
<path d="M872 4433 c-6 -3 -10 -9 -6 -14 3 -5 1 -9 -4 -9 -5 0 -21 -17 -34
-38 -18 -26 -38 -42 -67 -52 -72 -24 -40 -57 48 -48 22 2 37 0 35 -4 -3 -5 4
-8 15 -8 12 0 21 5 21 10 0 6 5 10 11 10 7 0 17 8 24 17 10 14 16 15 27 5 8
-6 19 -8 24 -4 5 4 0 -3 -11 -16 -11 -14 -26 -21 -37 -19 -10 3 -21 1 -24 -4
-3 -5 1 -9 9 -9 8 0 30 -2 48 -5 22 -4 28 -3 16 3 -17 7 -15 10 12 31 49 38
41 50 -34 49 -37 -1 -68 -5 -71 -10 -3 -4 -13 -8 -21 -8 -14 0 -13 4 5 20 12
11 28 17 37 14 8 -4 22 -1 30 6 7 6 22 10 32 9 24 -3 83 32 83 51 0 11 -3 11
-12 2 -15 -15 -58 -16 -58 -2 0 6 -15 8 -39 4 -30 -5 -40 -3 -43 8 -1 8 -9 13
-16 11z m26 -70 c-10 -2 -26 -2 -35 0 -10 3 -2 5 17 5 19 0 27 -2 18 -5z m-53
-23 c-3 -5 -11 -10 -16 -10 -6 0 -7 5 -4 10 3 6 11 10 16 10 6 0 7 -4 4 -10z"/>
<path d="M1288 4416 c-16 -12 -16 -14 5 -24 20 -10 103 -21 166 -22 13 0 30
-5 37 -11 10 -9 14 -9 14 0 0 6 -4 11 -9 11 -5 0 -11 9 -14 20 -3 12 -14 20
-26 20 -12 0 -21 5 -21 10 0 15 -27 12 -44 -5 -18 -19 -35 -19 -60 0 -24 18
-26 18 -48 1z"/>
<path d="M1193 4403 c-19 -7 -16 -18 13 -52 l26 -31 -27 10 c-15 6 -37 8 -48
4 -11 -3 -23 -1 -27 6 -6 9 -11 7 -18 -7 -10 -18 -8 -20 13 -15 14 2 37 1 52
-3 26 -6 26 -8 10 -19 -22 -17 -22 -33 1 -44 29 -15 144 -7 181 12 l33 18 -37
22 -37 23 31 6 c17 4 31 12 31 18 0 11 -34 9 -87 -7 -17 -4 -23 -2 -23 8 0 29
-56 61 -87 51z"/>
<path d="M616 4365 c-3 -8 -1 -15 3 -15 5 0 11 7 15 15 3 8 1 15 -3 15 -5 0
-11 -7 -15 -15z"/>
<path d="M1410 4333 c-21 -10 -22 -13 -7 -19 9 -3 25 0 33 7 9 8 31 12 48 11
25 -2 28 0 14 8 -20 12 -55 10 -88 -7z"/>
<path d="M1550 4321 c0 -11 5 -23 10 -26 6 -3 10 -2 10 4 0 5 3 16 6 25 4 11
1 16 -10 16 -9 0 -16 -8 -16 -19z"/>
<path d="M616 4303 c-11 -3 -26 -11 -34 -19 -11 -12 -11 -14 2 -14 9 0 16 4
16 8 0 4 9 8 19 8 11 0 17 -4 15 -8 -3 -4 -1 -8 4 -8 5 0 12 9 15 20 5 20 0
22 -37 13z"/>
<path d="M1026 4284 c-20 -19 -20 -24 0 -24 8 0 12 5 9 10 -3 6 1 10 9 10 9 0
16 5 16 10 0 15 -16 12 -34 -6z"/>
<path d="M1090 4285 c-10 -12 -10 -15 4 -15 9 0 16 4 16 9 0 5 8 12 18 14 13
4 13 5 -4 6 -12 0 -27 -6 -34 -14z"/>
<path d="M680 4280 c0 -5 5 -10 11 -10 5 0 7 5 4 10 -3 6 -8 10 -11 10 -2 0
-4 -4 -4 -10z"/>
<path d="M575 4260 c-29 -5 -29 -6 17 -19 26 -7 54 -11 63 -8 8 4 15 2 15 -2
0 -5 -6 -11 -12 -14 -7 -2 -10 -7 -7 -11 3 -3 29 -2 57 4 36 8 51 17 55 31 3
10 1 19 -4 19 -5 0 -9 -4 -9 -9 0 -14 -71 -19 -77 -6 -2 7 -15 10 -30 7 -14
-3 -28 -1 -32 5 -3 5 -19 6 -36 3z"/>
<path d="M1275 4220 c-4 -6 10 -10 35 -10 25 0 39 -4 35 -10 -3 -5 3 -10 14
-10 27 0 35 -17 11 -23 -11 -3 -20 -12 -20 -21 0 -9 -4 -16 -10 -16 -5 0 -7 7
-3 16 5 14 3 15 -18 4 -23 -13 -23 -13 -4 -21 29 -11 29 -11 53 11 12 12 23
16 27 10 3 -6 1 -10 -6 -10 -7 0 -9 -3 -6 -7 4 -3 0 -15 -10 -25 -14 -16 -15
-18 0 -18 9 0 19 5 22 10 3 6 14 10 23 10 15 0 15 -2 2 -10 -13 -8 -12 -10 5
-11 28 -3 36 -2 71 9 47 15 61 0 33 -32 -15 -17 -33 -26 -53 -27 -31 0 -31 0
-6 -10 40 -17 109 -5 127 21 12 17 17 19 24 9 7 -11 12 -12 29 -1 11 6 27 12
35 12 8 0 15 4 15 9 0 13 -34 23 -53 15 -17 -6 -19 -5 -87 56 -43 38 -58 45
-88 41 -8 -2 -28 4 -45 12 -41 19 -144 30 -152 17z"/>
<path d="M800 4210 c0 -5 9 -10 20 -10 11 0 20 5 20 10 0 6 -9 10 -20 10 -11
0 -20 -4 -20 -10z"/>
<path d="M1600 4210 c0 -5 -6 -10 -14 -10 -7 0 -19 -7 -26 -15 -10 -12 -7 -15
14 -21 16 -4 23 -11 19 -18 -3 -6 -3 -8 2 -4 4 4 14 0 22 -10 12 -16 14 -16
28 2 20 26 19 52 -1 60 -21 8 -37 -2 -30 -20 6 -16 -3 -18 -22 -5 -10 6 -7 12
12 24 28 19 56 22 56 7 0 -5 5 -10 10 -10 6 0 10 7 10 15 0 11 -11 15 -40 15
-22 0 -40 -4 -40 -10z"/>
<path d="M872 4200 c-34 -8 -49 -17 -41 -25 8 -8 79 15 79 25 0 6 -1 10 -2 9
-2 -1 -18 -5 -36 -9z"/>
<path d="M680 4180 c0 -5 5 -10 11 -10 5 0 7 5 4 10 -3 6 -8 10 -11 10 -2 0
-4 -4 -4 -10z"/>
<path d="M994 4175 c-18 -14 -18 -14 4 -8 12 3 22 9 22 14 0 12 -3 11 -26 -6z"/>
<path d="M725 4170 c-8 -13 5 -13 25 0 13 8 13 10 -2 10 -9 0 -20 -4 -23 -10z"/>
<path d="M560 4143 c0 -15 6 -23 18 -23 13 0 14 2 3 9 -7 5 -9 11 -4 14 13 8
93 -13 93 -25 0 -5 10 -6 23 -3 18 6 20 5 9 -6 -7 -8 -25 -14 -39 -14 -14 0
-28 -6 -30 -12 -3 -7 2 -13 11 -13 10 0 13 -6 10 -15 -4 -8 -11 -15 -17 -15
-6 0 -18 -6 -26 -14 -21 -19 -69 -9 -76 15 -8 25 -29 24 -22 -1 3 -11 1 -18
-3 -15 -9 5 -23 -12 -26 -30 0 -5 -2 -16 -2 -22 -1 -7 -12 -13 -24 -14 -20 0
-20 -2 6 -11 25 -9 31 -7 54 16 26 25 26 26 5 26 -12 0 -24 3 -26 8 -6 9 69 9
79 -1 4 -3 -4 -16 -17 -28 -19 -17 -20 -20 -5 -15 16 6 17 4 6 -9 -18 -22 -12
-20 75 25 43 22 84 40 91 40 8 0 20 15 28 33 7 18 27 45 44 59 28 24 32 38 10
38 -5 0 -6 -4 -3 -10 3 -5 1 -10 -4 -10 -6 0 -11 6 -11 13 0 6 -6 3 -12 -8 -7
-11 -18 -26 -25 -33 -7 -7 -13 -18 -13 -23 0 -5 -9 -9 -19 -9 -11 0 -23 -5
-27 -12 -5 -8 0 -9 14 -6 12 4 20 2 16 -3 -3 -5 -14 -9 -24 -9 -10 0 -22 -4
-25 -10 -3 -5 -14 -10 -23 -10 -13 0 -12 4 7 19 13 10 21 23 17 30 -4 6 -1 11
8 11 9 0 22 13 31 30 21 41 25 37 -42 41 -19 1 -30 6 -26 12 3 6 1 7 -5 3 -6
-3 -13 -2 -16 3 -4 5 -20 9 -36 9 -25 -1 -30 -5 -30 -25z"/>
<path d="M1109 4154 c-12 -14 -11 -16 5 -13 11 2 21 10 24 17 5 17 -13 15 -29
-4z"/>
<path d="M1160 4150 c-18 -14 -21 -20 -9 -20 9 0 24 9 34 20 23 26 8 26 -25 0z"/>
<path d="M1238 4153 c-10 -3 -18 -9 -18 -14 0 -10 7 -11 34 0 23 9 9 19 -16
14z"/>
<path d="M740 4125 c0 -8 5 -15 10 -15 6 0 10 7 10 15 0 8 -4 15 -10 15 -5 0
-10 -7 -10 -15z"/>
<path d="M895 4130 c6 -10 83 -5 93 5 3 3 -18 5 -47 5 -32 0 -50 -4 -46 -10z"/>
<path d="M1187 4133 c-4 -3 -7 -11 -7 -17 0 -6 5 -5 12 2 6 6 9 14 7 17 -3 3
-9 2 -12 -2z"/>
<path d="M573 4088 c-43 -14 -42 -28 2 -28 28 0 35 4 35 20 0 11 -1 20 -2 19
-2 -1 -18 -6 -35 -11z"/>
<path d="M1260 4090 c0 -5 17 -10 38 -9 30 0 33 2 17 9 -28 12 -55 12 -55 0z"/>
<path d="M124 4069 c-6 -10 11 -29 26 -29 3 0 11 4 19 9 17 11 5 31 -19 31
-10 0 -22 -5 -26 -11z"/>
<path d="M1084 4073 c4 -4 19 -8 34 -9 57 -3 56 -3 37 -24 -10 -11 -14 -20 -8
-20 5 0 20 12 34 27 18 19 19 25 7 20 -10 -3 -20 -2 -23 3 -4 6 -25 10 -47 10
-23 0 -38 -3 -34 -7z"/>
<path d="M244 4045 c-10 -8 -14 -15 -8 -15 5 0 19 7 30 15 10 8 14 15 8 15 -5
0 -19 -7 -30 -15z"/>
<path d="M1340 4051 c0 -12 39 -25 47 -17 4 3 -1 6 -10 6 -9 0 -17 5 -17 10 0
6 -4 10 -10 10 -5 0 -10 -4 -10 -9z"/>
<path d="M1691 4047 c-14 -17 -84 -39 -103 -32 -7 3 -22 -1 -32 -8 -17 -13
-14 -14 30 -14 28 1 55 -3 62 -7 24 -15 52 -15 52 0 0 8 9 14 20 14 12 0 20 7
20 17 0 13 -3 14 -12 5 -7 -7 -20 -12 -31 -12 -17 0 -17 1 -3 16 9 8 16 20 16
25 0 13 -6 11 -19 -4z"/>
<path d="M773 4043 c-20 -8 -15 -23 7 -23 11 0 20 7 20 15 0 15 -6 17 -27 8z"/>
<path d="M304 4021 c10 -15 52 -18 64 -4 11 11 5 13 -28 13 -23 0 -39 -4 -36
-9z"/>
<path d="M1410 4020 c0 -5 7 -10 15 -10 8 0 15 5 15 10 0 6 -7 10 -15 10 -8 0
-15 -4 -15 -10z"/>
<path d="M783 4003 c-22 -8 -14 -23 11 -23 13 0 26 7 30 15 3 8 1 15 -4 15 -6
0 -10 -6 -10 -12 0 -9 -3 -10 -8 -2 -4 6 -13 9 -19 7z"/>
<path d="M295 3990 c3 -5 16 -10 28 -10 18 0 19 2 7 10 -20 13 -43 13 -35 0z"/>
<path d="M1415 3960 c-15 -17 -16 -20 -3 -20 9 0 18 9 21 20 3 11 4 20 3 20
-2 0 -11 -9 -21 -20z"/>
<path d="M1449 3964 c-10 -13 -10 -17 2 -25 18 -11 51 -7 47 6 -2 6 -14 9 -27
7 -21 -3 -23 -1 -12 12 8 9 11 16 8 16 -2 0 -10 -7 -18 -16z"/>
<path d="M1030 3959 c0 -5 5 -7 10 -4 6 3 10 8 10 11 0 2 -4 4 -10 4 -5 0 -10
-5 -10 -11z"/>
<path d="M338 3913 c7 -3 16 -2 19 1 4 3 -2 6 -13 5 -11 0 -14 -3 -6 -6z"/>
<path d="M450 3899 c0 -19 -4 -20 -49 -14 -33 4 -51 3 -56 -5 -12 -19 4 -25
65 -23 66 1 94 18 78 46 -13 24 -38 21 -38 -4z"/>
<path d="M529 3880 c-24 -20 -24 -20 -5 -35 24 -18 27 -19 52 -1 10 8 15 18
11 23 -5 4 -15 -1 -23 -12 -12 -16 -16 -17 -23 -6 -6 10 -2 20 12 32 12 10 17
18 11 19 -7 0 -22 -9 -35 -20z"/>
<path d="M1675 3830 c-3 -6 1 -7 9 -4 18 7 21 14 7 14 -6 0 -13 -4 -16 -10z"/>
<path d="M1484 3812 c13 -21 85 -34 119 -22 22 7 33 7 35 0 5 -15 22 -12 22 5
0 11 -13 15 -52 15 -29 0 -71 3 -92 7 -28 4 -37 3 -32 -5z"/>
<path d="M1170 3770 c-8 -5 -26 -6 -39 -3 -17 4 -22 2 -17 -6 4 -6 17 -11 29
-11 22 0 22 -1 -3 -20 -27 -21 -12 -27 23 -9 25 14 37 28 37 47 0 14 -9 15
-30 2z"/>
<path d="M1070 3760 c0 -5 5 -10 10 -10 6 0 10 5 10 10 0 6 -4 10 -10 10 -5 0
-10 -4 -10 -10z"/>
<path d="M887 3709 c7 -7 15 -10 18 -7 3 3 -2 9 -12 12 -14 6 -15 5 -6 -5z"/>
<path d="M1118 3686 c-16 -9 -30 -11 -33 -5 -4 5 -11 9 -17 9 -7 0 -6 -6 2
-15 10 -12 10 -18 0 -30 -26 -31 25 -16 65 20 41 36 32 46 -17 21z"/>
<path d="M1010 3681 c0 -14 29 -21 36 -9 4 7 3 8 -4 4 -7 -4 -12 -2 -12 3 0 6
-4 11 -10 11 -5 0 -10 -4 -10 -9z"/>
<path d="M960 3630 c0 -5 4 -10 9 -10 6 0 13 5 16 10 3 6 -1 10 -9 10 -9 0
-16 -4 -16 -10z"/>
<path d="M830 3621 c0 -8 61 -22 69 -15 1 1 0 7 -4 13 -8 13 -65 15 -65 2z"/>
<path d="M3580 4430 c-12 -8 -11 -10 8 -10 12 0 22 5 22 10 0 13 -11 13 -30 0z"/>
<path d="M3530 4420 c8 -5 20 -10 25 -10 6 0 3 5 -5 10 -8 5 -19 10 -25 10 -5
0 -3 -5 5 -10z"/>
<path d="M3291 4216 c-8 -10 -7 -21 4 -44 9 -17 19 -50 24 -74 l8 -43 13 30
c13 32 17 116 6 134 -10 15 -41 14 -55 -3z"/>
<path d="M4330 3820 c14 -10 27 -17 29 -14 6 5 -31 33 -44 33 -5 1 1 -8 15
-19z"/>
<path d="M4160 3792 c-25 -7 -52 -18 -60 -23 -8 -5 -23 -12 -32 -15 -28 -10
-21 -27 7 -20 16 4 25 2 25 -5 0 -14 14 -3 16 12 3 22 5 23 13 10 7 -11 12
-10 29 7 11 11 28 24 38 30 30 17 12 19 -36 4z"/>
<path d="M4220 3790 c0 -5 7 -10 15 -10 8 0 15 5 15 10 0 6 -7 10 -15 10 -8 0
-15 -4 -15 -10z"/>
<path d="M3930 3780 c-20 -13 -10 -19 22 -13 15 3 25 9 22 14 -7 12 -25 11
-44 -1z"/>
<path d="M4011 3761 c-10 -6 -10 -10 -1 -16 13 -8 24 -1 19 14 -3 6 -10 7 -18
2z"/>
<path d="M3868 3728 c6 -6 18 -8 28 -6 14 3 12 5 -9 10 -19 3 -25 2 -19 -4z"/>
<path d="M4025 3690 c-3 -5 -2 -10 4 -10 5 0 13 5 16 10 3 6 2 10 -4 10 -5 0
-13 -4 -16 -10z"/>
<path d="M4358 3693 c7 -3 16 -2 19 1 4 3 -2 6 -13 5 -11 0 -14 -3 -6 -6z"/>
<path d="M3764 3681 c4 -5 0 -12 -6 -14 -8 -3 -6 -6 5 -6 9 -1 17 6 17 14 0 8
-5 15 -11 15 -5 0 -8 -4 -5 -9z"/>
<path d="M4236 3671 c-3 -5 1 -12 10 -15 20 -8 29 -1 19 13 -8 13 -22 14 -29
2z"/>
<path d="M4360 3670 c-21 -7 -21 -8 -5 -9 11 0 27 4 35 9 18 11 5 11 -30 0z"/>
<path d="M3975 3660 c-3 -5 -1 -10 4 -10 6 0 11 5 11 10 0 6 -2 10 -4 10 -3 0
-8 -4 -11 -10z"/>
<path d="M4148 3650 c12 -10 22 -23 22 -29 0 -6 5 -11 10 -11 6 0 10 5 10 10
0 14 53 13 67 -1 13 -13 53 -3 53 13 0 6 -12 8 -29 5 -15 -3 -32 -2 -38 4 -5
5 -34 14 -64 18 -52 9 -53 8 -31 -9z"/>
<path d="M4041 3636 c-8 -9 -8 -16 -2 -20 6 -4 15 3 21 14 12 23 -2 27 -19 6z"/>
<path d="M3958 3623 c-10 -3 -18 -9 -18 -14 0 -5 -6 -9 -14 -9 -15 0 -60 -50
-52 -58 3 -2 19 6 36 18 33 24 78 30 89 12 7 -12 32 -1 34 14 1 5 8 8 17 6 13
-2 13 -2 0 7 -8 6 -24 11 -35 11 -12 0 -25 4 -30 8 -6 5 -18 7 -27 5z"/>
<path d="M4125 3610 c-8 -13 9 -20 24 -11 10 6 9 10 -3 14 -8 3 -18 2 -21 -3z"/>
<path d="M3664 3595 c11 -8 22 -12 25 -9 6 6 -19 24 -34 24 -5 -1 -1 -7 9 -15z"/>
<path d="M4345 3590 c3 -5 11 -10 16 -10 6 0 7 5 4 10 -3 6 -11 10 -16 10 -6
0 -7 -4 -4 -10z"/>
<path d="M4090 3580 c0 -5 5 -10 11 -10 5 0 7 5 4 10 -3 6 -8 10 -11 10 -2 0
-4 -4 -4 -10z"/>
<path d="M4043 3570 c-24 -10 -30 -25 -14 -35 16 -9 60 16 54 31 -6 16 -9 16
-40 4z"/>
<path d="M3420 3540 c0 -5 6 -10 14 -10 8 0 18 5 21 10 3 6 -3 10 -14 10 -12
0 -21 -4 -21 -10z"/>
<path d="M4081 3541 c-8 -5 -11 -17 -6 -30 5 -18 2 -21 -24 -21 -17 0 -31 5
-31 12 0 6 -2 9 -5 6 -9 -9 7 -38 21 -38 8 0 14 -7 14 -16 0 -12 6 -15 20 -11
17 4 20 2 15 -13 -4 -12 1 -19 17 -24 32 -8 38 -8 38 4 0 6 -5 9 -11 8 -6 -2
-14 3 -16 10 -3 6 1 12 9 12 10 0 10 2 0 8 -18 12 -4 42 19 42 10 0 19 5 19
10 0 6 -6 10 -12 10 -9 0 -8 3 2 10 8 5 12 11 10 13 -11 10 -67 15 -79 8z"/>
<path d="M3475 3520 c3 -5 13 -10 21 -10 8 0 12 5 9 10 -3 6 -13 10 -21 10 -8
0 -12 -4 -9 -10z"/>
<path d="M3538 3513 c7 -3 16 -2 19 1 4 3 -2 6 -13 5 -11 0 -14 -3 -6 -6z"/>
<path d="M3600 3501 l-35 -7 41 -12 c23 -7 49 -9 58 -6 15 6 15 8 -1 20 -10 7
-20 13 -23 12 -3 0 -21 -4 -40 -7z"/>
<path d="M3720 3460 c0 -5 5 -10 11 -10 5 0 7 5 4 10 -3 6 -8 10 -11 10 -2 0
-4 -4 -4 -10z"/>
<path d="M3448 3438 c9 -9 15 -9 24 0 9 9 7 12 -12 12 -19 0 -21 -3 -12 -12z"/>
<path d="M3730 3432 c0 -5 -12 -7 -26 -4 -20 4 -25 2 -19 -8 5 -7 18 -10 37
-6 26 5 28 4 14 -10 -10 -10 -24 -13 -37 -9 -16 5 -19 4 -14 -5 4 -7 1 -16 -6
-21 -10 -6 -8 -9 9 -9 12 0 31 5 42 12 15 10 22 9 39 -6 15 -14 23 -15 40 -6
23 12 45 5 36 -11 -4 -5 -2 -9 3 -9 20 0 21 30 1 41 -16 8 -25 7 -39 -6 -18
-16 -19 -16 -25 6 -6 24 -55 69 -55 51z"/>
<path d="M3630 3420 c-12 -8 -10 -10 8 -10 13 0 20 4 17 10 -7 12 -6 12 -25 0z"/>
<path d="M252 3798 c6 -18 28 -21 28 -4 0 9 -7 16 -16 16 -9 0 -14 -5 -12 -12z"/>
<path d="M144 3725 c-10 -8 -14 -14 -9 -15 15 0 40 18 34 24 -3 3 -14 -1 -25
-9z"/>
<path d="M604 3709 c-18 -20 -18 -20 10 -13 16 4 38 8 50 9 38 4 41 7 16 15
-41 13 -56 11 -76 -11z"/>
<path d="M618 3673 c7 -3 16 -2 19 1 4 3 -2 6 -13 5 -11 0 -14 -3 -6 -6z"/>
<path d="M650 3660 c0 -5 7 -7 15 -4 8 4 15 8 15 10 0 2 -7 4 -15 4 -8 0 -15
-4 -15 -10z"/>
<path d="M95 3570 c-3 -5 -1 -10 4 -10 6 0 11 5 11 10 0 6 -2 10 -4 10 -3 0
-8 -4 -11 -10z"/>
<path d="M470 3420 c-9 -6 -10 -10 -3 -10 6 0 15 5 18 10 8 12 4 12 -15 0z"/>
<path d="M1256 3572 c-3 -6 -1 -14 5 -17 14 -9 20 -2 10 14 -6 8 -11 9 -15 3z"/>
<path d="M1786 3274 c-9 -22 3 -32 14 -14 12 19 12 30 1 30 -5 0 -12 -7 -15
-16z"/>
<path d="M1060 3139 c0 -5 5 -7 10 -4 6 3 10 8 10 11 0 2 -4 4 -10 4 -5 0 -10
-5 -10 -11z"/>
<path d="M1095 3100 c-18 -8 -17 -9 8 -9 15 -1 27 4 27 9 0 12 -8 12 -35 0z"/>
<path d="M860 3090 c-12 -8 -11 -10 8 -10 12 0 22 5 22 10 0 13 -11 13 -30 0z"/>
<path d="M610 3070 c-25 -8 -24 -8 5 -9 17 -1 41 -4 55 -7 l25 -5 -25 15 c-28
17 -26 17 -60 6z"/>
<path d="M1030 3070 c19 -13 30 -13 30 0 0 6 -10 10 -22 10 -19 0 -20 -2 -8
-10z"/>
<path d="M1157 3074 c-12 -13 3 -21 29 -16 19 3 22 7 12 13 -16 10 -32 11 -41
3z"/>
<path d="M804 3051 c8 -7 19 -10 25 -7 19 12 12 24 -14 22 -20 -1 -22 -3 -11
-15z"/>
<path d="M1076 3055 c-3 -9 0 -15 9 -15 8 0 15 7 15 15 0 8 -4 15 -9 15 -5 0
-11 -7 -15 -15z"/>
<path d="M886 3045 c-3 -9 -20 -22 -38 -30 -18 -8 -27 -14 -20 -15 7 0 22 4
32 10 13 7 19 6 24 -5 3 -8 12 -15 21 -15 20 0 19 10 -2 27 -16 12 -15 13 15
8 24 -5 32 -3 32 8 0 8 -10 17 -22 21 -33 8 -35 8 -42 -9z"/>
<path d="M1076 3005 c4 -8 10 -12 15 -9 11 6 2 24 -11 24 -5 0 -7 -7 -4 -15z"/>
<path d="M327 2915 c-5 -11 0 -15 16 -15 12 0 18 4 12 8 -5 4 -13 11 -16 15
-4 4 -9 1 -12 -8z"/>
<path d="M85 2770 c-3 -5 -1 -10 4 -10 6 0 11 5 11 10 0 6 -2 10 -4 10 -3 0
-8 -4 -11 -10z"/>
<path d="M4845 2810 c-4 -6 5 -10 20 -10 15 0 24 4 20 10 -3 6 -12 10 -20 10
-8 0 -17 -4 -20 -10z"/>
<path d="M4865 2730 c4 -6 11 -8 16 -5 14 9 11 15 -7 15 -8 0 -12 -5 -9 -10z"/>
<path d="M4705 2600 c-7 -12 2 -30 16 -30 12 0 12 27 0 35 -5 3 -12 1 -16 -5z"/>
<path d="M4960 2504 c0 -8 5 -12 10 -9 6 4 8 11 5 16 -9 14 -15 11 -15 -7z"/>
<path d="M4650 2480 c0 -5 7 -10 15 -10 8 0 15 5 15 10 0 6 -7 10 -15 10 -8 0
-15 -4 -15 -10z"/>
<path d="M4996 2265 c4 -8 10 -15 15 -15 4 0 6 7 3 15 -4 8 -10 15 -15 15 -4
0 -6 -7 -3 -15z"/>
<path d="M1770 2182 c0 -5 9 -12 21 -15 13 -3 19 -1 16 6 -5 15 -37 22 -37 9z"/>
<path d="M5288 1455 c-25 -34 -22 -38 7 -11 25 23 31 36 18 36 -5 0 -16 -11
-25 -25z"/>
<path d="M5200 1350 c0 -5 5 -10 10 -10 6 0 10 5 10 10 0 6 -4 10 -10 10 -5 0
-10 -4 -10 -10z"/>
<path d="M5175 1340 c-3 -5 -1 -10 4 -10 6 0 11 5 11 10 0 6 -2 10 -4 10 -3 0
-8 -4 -11 -10z"/>
<path d="M4280 719 c0 -5 5 -7 10 -4 6 3 10 8 10 11 0 2 -4 4 -10 4 -5 0 -10
-5 -10 -11z"/>
<path d="M4250 690 c0 -5 4 -10 9 -10 6 0 13 5 16 10 3 6 -1 10 -9 10 -9 0
-16 -4 -16 -10z"/>
<path d="M4312 621 c-11 -6 -10 -10 4 -15 20 -8 32 0 18 14 -5 5 -15 5 -22 1z"/>
<path d="M4232 590 c-14 -32 -10 -60 8 -60 17 0 22 25 13 59 l-8 31 -13 -30z"/>
<path d="M4185 560 c4 -6 11 -8 16 -5 14 9 11 15 -7 15 -8 0 -12 -5 -9 -10z"/>
<path d="M4325 251 c-3 -5 -1 -12 5 -16 5 -3 10 1 10 9 0 18 -6 21 -15 7z"/>
<path d="M660 230 c19 -13 30 -13 30 0 0 6 -10 10 -22 10 -19 0 -20 -2 -8 -10z"/>
<path d="M4037 5519 c-3 -10 0 -19 6 -19 7 0 4 -6 -5 -14 -13 -9 -14 -16 -6
-24 8 -8 7 -13 -5 -18 -9 -3 -17 -13 -17 -22 0 -12 3 -13 12 -4 19 19 38 14
38 -9 0 -16 4 -19 18 -14 20 8 21 8 44 6 11 -1 15 -7 11 -21 -6 -23 12 -27 21
-5 3 8 10 15 16 15 6 0 9 -3 7 -7 -3 -5 -1 -17 3 -29 6 -16 18 -21 47 -22 21
-1 43 -8 48 -15 8 -11 24 -13 74 -6 55 8 67 7 84 -8 10 -10 21 -17 23 -16 8 5
34 -10 34 -19 0 -5 -4 -6 -10 -3 -5 3 -10 1 -10 -4 0 -13 27 -13 55 -1 19 8
18 11 -6 14 -7 0 -15 10 -20 21 -4 11 -8 17 -8 13 -1 -4 -14 -2 -31 3 -16 6
-27 15 -24 21 11 17 -39 58 -78 64 -31 5 -36 9 -27 20 9 11 5 14 -26 14 -27 0
-51 10 -86 35 -27 19 -54 35 -61 35 -6 0 -19 6 -27 14 -9 7 -32 16 -53 19 -30
4 -37 2 -41 -14z"/>
<path d="M4295 5524 c20 -10 31 -12 33 -4 5 13 32 -7 32 -24 0 -6 17 -22 38
-36 45 -30 182 -168 182 -183 0 -6 6 -18 13 -26 25 -29 75 -179 69 -204 -1 -4
19 4 45 20 37 21 60 27 105 28 32 0 58 2 58 5 0 4 15 4 34 2 18 -2 43 1 54 7
16 8 23 6 38 -10 15 -17 28 -20 76 -17 32 2 58 0 58 -4 0 -7 26 -16 61 -21 8
-2 20 -6 27 -10 7 -5 12 -3 13 5 0 7 4 5 8 -6 6 -15 18 -19 72 -19 35 0 70 -4
77 -10 9 -7 16 -5 25 7 15 20 108 30 119 13 4 -7 8 10 8 36 l0 49 -42 -6 -43
-5 43 11 c37 10 42 14 42 39 0 25 -5 30 -41 39 -23 6 -39 14 -36 17 4 3 19 1
36 -5 16 -6 32 -8 35 -5 3 4 6 51 6 106 0 81 -3 98 -14 94 -8 -3 -46 -9 -85
-13 -54 -5 -76 -3 -93 8 -26 16 -90 34 -158 43 -25 3 -56 14 -70 23 -17 12
-48 17 -100 18 -131 3 -138 4 -155 20 -27 27 -87 33 -350 34 -232 0 -248 -1
-220 -16z m981 -302 c-5 -8 -76 -4 -76 4 0 2 18 4 41 4 22 0 38 -4 35 -8z
m149 -2 c15 -6 7 -8 -27 -7 -27 1 -48 5 -48 10 0 10 50 8 75 -3z m-395 -120
c0 -5 -4 -10 -10 -10 -5 0 -10 5 -10 10 0 6 5 10 10 10 6 0 10 -4 10 -10z
m217 -6 c-3 -3 -12 -4 -19 -1 -8 3 -5 6 6 6 11 1 17 -2 13 -5z"/>
<path d="M4200 5520 c0 -5 5 -10 11 -10 5 0 7 5 4 10 -3 6 -8 10 -11 10 -2 0
-4 -4 -4 -10z"/>
<path d="M805 5500 c3 -5 10 -10 16 -10 5 0 9 5 9 10 0 6 -7 10 -16 10 -8 0
-12 -4 -9 -10z"/>
<path d="M918 5503 c7 -3 16 -2 19 1 4 3 -2 6 -13 5 -11 0 -14 -3 -6 -6z"/>
<path d="M3976 5502 c-3 -6 1 -13 10 -16 9 -4 14 -13 10 -21 -3 -8 0 -15 7
-15 20 0 15 54 -5 58 -9 2 -19 -1 -22 -6z"/>
<path d="M4235 5500 c3 -5 11 -10 16 -10 6 0 7 5 4 10 -3 6 -11 10 -16 10 -6
0 -7 -4 -4 -10z"/>
<path d="M3806 5404 c-4 -10 -1 -14 6 -12 15 5 23 28 10 28 -5 0 -13 -7 -16
-16z"/>
<path d="M3690 5400 c0 -5 5 -10 11 -10 5 0 7 5 4 10 -3 6 -8 10 -11 10 -2 0
-4 -4 -4 -10z"/>
<path d="M3954 5396 c-10 -8 -17 -17 -14 -19 3 -3 14 1 24 9 11 7 17 16 15 19
-3 3 -14 -2 -25 -9z"/>
<path d="M310 5375 c0 -2 10 -10 23 -16 20 -11 21 -11 8 4 -13 16 -31 23 -31
12z"/>
<path d="M500 5370 c0 -5 5 -10 11 -10 5 0 7 5 4 10 -3 6 -8 10 -11 10 -2 0
-4 -4 -4 -10z"/>
<path d="M3936 5345 c4 -8 8 -15 10 -15 2 0 4 7 4 15 0 8 -4 15 -10 15 -5 0
-7 -7 -4 -15z"/>
<path d="M2360 5346 c0 -2 7 -9 15 -16 9 -7 15 -8 15 -2 0 5 -7 12 -15 16 -8
3 -15 4 -15 2z"/>
<path d="M3895 5339 c-4 -6 -5 -13 -2 -16 7 -7 27 6 27 18 0 12 -17 12 -25 -2z"/>
<path d="M2830 5325 c0 -8 4 -15 9 -15 5 0 11 7 15 15 3 9 0 15 -9 15 -8 0
-15 -7 -15 -15z"/>
<path d="M205 5300 l-30 -8 27 -1 c15 0 30 4 33 9 3 6 5 9 3 9 -2 -1 -16 -5
-33 -9z"/>
<path d="M3740 5295 c0 -8 2 -15 4 -15 2 0 6 7 10 15 3 8 1 15 -4 15 -6 0 -10
-7 -10 -15z"/>
<path d="M4250 5299 c0 -5 5 -7 10 -4 6 3 10 8 10 11 0 2 -4 4 -10 4 -5 0 -10
-5 -10 -11z"/>
<path d="M420 5290 c0 -4 -15 -7 -34 -5 -42 4 -66 -9 -49 -26 8 -8 27 -9 60
-4 26 5 54 7 62 6 7 -1 11 3 9 10 -5 15 -48 32 -48 19z"/>
<path d="M4330 5283 c-8 -2 -22 -7 -30 -10 -8 -3 -22 -5 -31 -4 -8 1 -26 -3
-40 -8 -18 -7 -20 -10 -6 -10 10 -1 15 -5 12 -11 -3 -5 -1 -10 4 -10 6 0 11 5
11 10 0 6 7 10 15 10 8 0 15 -3 15 -8 0 -15 56 -31 82 -24 15 4 28 10 28 15 1
31 -2 37 -15 37 -8 0 -15 5 -15 10 0 11 -6 11 -30 3z"/>
<path d="M500 5260 c8 -5 22 -10 30 -10 13 0 13 1 0 10 -8 5 -22 10 -30 10
-13 0 -13 -1 0 -10z"/>
<path d="M4410 5245 c0 -9 6 -12 16 -8 13 5 15 1 10 -15 -3 -12 -9 -31 -12
-42 -3 -11 -1 -20 5 -20 6 0 11 4 11 10 0 5 11 12 25 16 20 5 24 11 19 27 -9
28 -24 42 -51 44 -15 2 -23 -3 -23 -12z"/>
<path d="M4541 5236 c-9 -11 -6 -13 14 -13 20 0 23 2 14 13 -6 8 -13 14 -14
14 -1 0 -8 -6 -14 -14z"/>
<path d="M4146 5221 c-3 -5 1 -12 10 -15 20 -8 29 -1 19 13 -8 13 -22 14 -29
2z"/>
<path d="M4202 5188 c-14 -14 -16 -28 -2 -28 5 0 14 9 20 20 12 22 1 27 -18 8z"/>
<path d="M4587 5153 c-12 -12 -7 -33 7 -33 8 0 18 -9 21 -20 3 -11 11 -20 16
-20 14 0 11 17 -6 34 -8 8 -15 22 -15 30 0 17 -12 21 -23 9z"/>
<path d="M4248 5143 c7 -3 16 -2 19 1 4 3 -2 6 -13 5 -11 0 -14 -3 -6 -6z"/>
<path d="M4040 5120 c0 -5 5 -10 10 -10 6 0 10 5 10 10 0 6 -4 10 -10 10 -5 0
-10 -4 -10 -10z"/>
<path d="M4382 5122 c-16 -11 -6 -39 13 -39 11 0 12 4 4 14 -16 19 1 16 23 -4
11 -9 18 -11 18 -5 0 7 7 12 15 12 8 0 15 5 15 10 0 6 -11 10 -24 10 -13 0
-30 2 -38 5 -7 3 -19 1 -26 -3z"/>
<path d="M3740 5107 c0 -10 -4 -16 -9 -13 -11 7 -41 -3 -41 -14 0 -16 35 -16
65 -2 21 11 26 17 15 20 -8 3 -18 10 -22 16 -5 7 -8 4 -8 -7z"/>
<path d="M3565 5090 c3 -5 8 -10 11 -10 2 0 4 5 4 10 0 6 -5 10 -11 10 -5 0
-7 -4 -4 -10z"/>
<path d="M4075 5090 c-3 -5 -1 -10 4 -10 6 0 11 5 11 10 0 6 -2 10 -4 10 -3 0
-8 -4 -11 -10z"/>
<path d="M3810 5070 c0 -5 5 -10 11 -10 5 0 7 5 4 10 -3 6 -8 10 -11 10 -2 0
-4 -4 -4 -10z"/>
<path d="M3756 5041 c-3 -5 4 -11 16 -14 30 -8 35 -1 9 12 -11 6 -22 7 -25 2z"/>
<path d="M4713 5033 c4 -3 -1 -12 -11 -19 -16 -13 -16 -13 1 -14 9 0 17 2 17
4 0 2 3 11 6 20 4 10 1 16 -7 16 -7 0 -9 -3 -6 -7z"/>
<path d="M4665 5021 c-3 -5 -1 -12 4 -15 5 -3 11 1 15 9 6 16 -9 21 -19 6z"/>
<path d="M672 4984 c-13 -15 -16 -54 -4 -54 11 0 52 39 52 49 0 15 -35 18 -48
5z"/>
<path d="M202 4958 c-12 -5 -9 -7 13 -9 17 -1 41 -1 55 0 14 1 30 -5 37 -15
11 -15 28 -18 118 -16 58 1 114 6 124 12 28 14 44 12 37 -5 -7 -20 1 -19 31 5
l26 20 -27 0 c-18 0 -25 4 -20 11 5 9 -1 10 -22 4 -33 -9 -116 -10 -257 -4
-54 2 -105 1 -115 -3z"/>
<path d="M742 4956 c8 -7 25 -17 38 -21 l25 -7 -27 21 c-30 24 -58 30 -36 7z"/>
<path d="M4687 4950 c3 -11 9 -17 14 -14 14 8 10 34 -5 34 -9 0 -12 -7 -9 -20z"/>
<path d="M5158 4923 c7 -3 16 -2 19 1 4 3 -2 6 -13 5 -11 0 -14 -3 -6 -6z"/>
<path d="M467 4889 c7 -7 15 -10 18 -7 3 3 -2 9 -12 12 -14 6 -15 5 -6 -5z"/>
<path d="M5055 4880 c-3 -5 1 -10 10 -10 9 0 13 5 10 10 -3 6 -8 10 -10 10 -2
0 -7 -4 -10 -10z"/>
<path d="M4943 4874 c11 -12 77 -15 77 -4 0 5 -19 10 -42 10 -23 0 -38 -3 -35
-6z"/>
<path d="M3476 4861 c2 -2 -1 -10 -7 -18 -8 -8 -8 -13 -1 -13 6 0 19 -3 29 -6
15 -5 15 -4 3 4 -12 9 -9 13 13 21 36 14 34 20 -7 18 -19 -1 -32 -4 -30 -6z"/>
<path d="M3549 4848 c-18 -16 -19 -19 -6 -15 10 4 27 7 38 7 12 0 16 5 13 15
-8 20 -17 19 -45 -7z"/>
<path d="M5164 4833 c4 -5 37 -8 72 -8 35 0 64 3 64 8 0 4 -32 7 -72 7 -39 0
-68 -3 -64 -7z"/>
<path d="M3319 4816 c-15 -10 -15 -14 -3 -31 8 -10 17 -15 21 -11 4 4 1 11 -7
17 -13 8 -13 10 0 18 8 6 12 12 10 15 -3 2 -12 -1 -21 -8z"/>
<path d="M3577 4813 c-9 -2 -15 -9 -12 -14 8 -12 -2 -11 -25 1 -18 10 -69 -4
-71 -19 0 -3 -2 -14 -4 -23 -2 -10 1 -18 6 -18 5 0 9 7 9 16 0 14 9 16 50 12
28 -3 53 -1 56 3 3 5 16 9 29 9 16 0 22 5 21 18 -3 17 -27 24 -59 15z"/>
<path d="M3680 4780 c0 -5 5 -10 11 -10 5 0 7 5 4 10 -3 6 -8 10 -11 10 -2 0
-4 -4 -4 -10z"/>
<path d="M3637 4753 c-12 -12 -7 -22 8 -17 8 4 15 10 15 15 0 11 -14 12 -23 2z"/>
<path d="M3505 4740 c3 -5 10 -10 16 -10 5 0 9 5 9 10 0 6 -7 10 -16 10 -8 0
-12 -4 -9 -10z"/>
<path d="M3541 4726 c-14 -16 -6 -40 10 -30 5 3 7 9 4 14 -6 10 35 1 51 -11 6
-5 14 -6 17 -2 4 3 7 1 7 -6 0 -7 -7 -11 -15 -8 -8 4 -17 2 -20 -2 -3 -5 -15
-7 -28 -4 -21 4 -21 4 -4 -10 14 -12 26 -13 55 -5 20 5 41 14 47 19 5 5 18 9
30 9 18 1 19 1 2 11 -9 5 -22 7 -27 4 -6 -3 -10 -2 -10 3 0 5 -15 12 -32 15
-18 4 -42 9 -54 12 -12 4 -25 0 -33 -9z"/>
<path d="M3690 4650 c0 -5 7 -10 15 -10 8 0 15 5 15 10 0 6 -7 10 -15 10 -8 0
-15 -4 -15 -10z"/>
<path d="M3640 4630 c0 -5 7 -7 15 -4 8 4 15 8 15 10 0 2 -7 4 -15 4 -8 0 -15
-4 -15 -10z"/>
<path d="M3670 4589 c0 -5 5 -7 10 -4 6 3 10 8 10 11 0 2 -4 4 -10 4 -5 0 -10
-5 -10 -11z"/>
<path d="M5465 4560 c3 -5 10 -10 16 -10 5 0 9 5 9 10 0 6 -7 10 -16 10 -8 0
-12 -4 -9 -10z"/>
<path d="M5471 4536 c-18 -10 -20 -15 -10 -19 10 -4 8 -8 -8 -12 -12 -4 -24
-13 -27 -21 -5 -12 5 -14 52 -10 42 3 58 8 60 20 3 12 -4 16 -24 16 -15 0 -24
3 -20 8 4 4 12 7 17 7 14 0 12 20 -3 22 -7 2 -24 -3 -37 -11z"/>
<path d="M4730 4486 c0 -2 7 -6 15 -10 8 -3 15 -1 15 4 0 6 -7 10 -15 10 -8 0
-15 -2 -15 -4z"/>
<path d="M5328 4473 c7 -3 16 -2 19 1 4 3 -2 6 -13 5 -11 0 -14 -3 -6 -6z"/>
<path d="M4795 4460 c3 -5 12 -7 20 -3 21 7 19 13 -6 13 -11 0 -18 -4 -14 -10z"/>
<path d="M5480 4050 c0 -13 11 -13 30 0 12 8 11 10 -7 10 -13 0 -23 -4 -23
-10z"/>
<path d="M5246 3936 c-20 -31 -20 -32 -1 -40 11 -4 19 3 26 21 14 37 -4 50
-25 19z"/>
<path d="M5403 3890 c-1 -12 8 -20 29 -24 47 -9 108 -7 108 4 0 5 -15 8 -32 6
-39 -5 -80 3 -73 14 3 4 -3 10 -13 12 -12 3 -18 -1 -19 -12z"/>
<path d="M5340 3862 c0 -13 83 -23 95 -11 5 5 -4 9 -27 9 -20 0 -43 3 -52 6
-9 3 -16 2 -16 -4z"/>
<path d="M5520 3766 c0 -8 -8 -16 -17 -18 -13 -3 -10 -6 10 -10 21 -4 27 -2
27 13 0 10 -4 21 -10 24 -5 3 -10 -1 -10 -9z"/>
<path d="M5258 3193 c6 -2 18 -2 25 0 6 3 1 5 -13 5 -14 0 -19 -2 -12 -5z"/>
<path d="M5508 2623 c-27 -7 -22 -23 7 -23 16 0 25 6 25 15 0 15 -2 16 -32 8z"/>
<path d="M5460 2232 c0 -7 -10 -13 -22 -13 -19 -1 -20 -2 -4 -6 20 -5 44 12
33 24 -4 3 -7 1 -7 -5z"/>
<path d="M5517 2233 c-3 -5 1 -14 9 -21 12 -10 14 -10 14 2 0 17 -16 30 -23
19z"/>
<path d="M5415 2100 c3 -5 8 -10 11 -10 2 0 4 5 4 10 0 6 -5 10 -11 10 -5 0
-7 -4 -4 -10z"/>
<path d="M5470 2060 c0 -5 5 -10 10 -10 6 0 10 5 10 10 0 6 -4 10 -10 10 -5 0
-10 -4 -10 -10z"/>
<path d="M5470 2033 c8 -3 23 -10 32 -15 14 -6 16 -5 12 7 -4 8 -18 15 -33 14
-15 0 -20 -3 -11 -6z"/>
<path d="M5503 1973 c-16 -6 -17 -25 -2 -40 15 -15 39 -5 39 17 0 19 -17 30
-37 23z"/>
<path d="M5510 1781 c0 -5 5 -13 10 -16 6 -3 10 -2 10 4 0 5 -4 13 -10 16 -5
3 -10 2 -10 -4z"/>
</g>
</svg>
