<?xml version="1.0" standalone="no"?>
<!DOCTYPE svg PUBLIC "-//W3C//DTD SVG 20010904//EN"
 "http://www.w3.org/TR/2001/REC-SVG-20010904/DTD/svg10.dtd">
<svg version="1.0" xmlns="http://www.w3.org/2000/svg"
 width="500.000000pt" height="500.000000pt" viewBox="0 0 500.000000 500.000000"
 preserveAspectRatio="xMidYMid meet">

<g transform="translate(0.000000,500.000000) scale(0.100000,-0.100000)"
fill="#000000" stroke="none">
<path d="M2746 4241 c-14 -15 -22 -17 -35 -9 -28 17 -98 -8 -134 -48 -18 -20
-57 -52 -87 -72 -52 -35 -92 -67 -130 -103 -49 -46 -115 -236 -123 -348 -3
-49 -6 -55 -28 -58 -13 -2 -30 -10 -38 -18 -21 -21 -32 -113 -21 -171 11 -51
39 -104 40 -75 0 11 4 11 18 -2 10 -10 22 -14 26 -10 4 5 6 -3 4 -17 -2 -20
-8 -24 -28 -22 -24 3 -24 2 -6 -13 11 -8 25 -15 31 -15 8 0 13 -26 15 -72 6
-113 2 -163 -20 -251 -22 -88 -42 -127 -65 -127 -20 0 -152 -65 -191 -93 -17
-13 -82 -45 -145 -71 -63 -26 -145 -63 -184 -81 -38 -19 -81 -37 -95 -41 -43
-12 -149 -75 -167 -99 -10 -13 -39 -52 -65 -87 -90 -123 -124 -245 -138 -498
-9 -170 -12 -193 -38 -222 -10 -12 -13 -29 -8 -57 4 -25 2 -42 -5 -47 -6 -3
-9 -19 -5 -34 3 -19 1 -30 -9 -34 -17 -6 -20 -47 -4 -63 8 -8 8 -13 0 -17 -14
-9 -14 -103 0 -112 7 -4 9 -24 5 -54 -8 -63 20 -500 38 -586 19 -90 69 -212
100 -242 22 -22 32 -24 102 -23 85 2 96 -5 87 -51 -4 -19 0 -35 11 -47 9 -10
13 -21 9 -25 -11 -10 -13 -105 -3 -111 4 -3 6 -30 4 -60 l-4 -55 925 0 c955 0
951 0 914 37 -6 6 -12 37 -14 69 -2 33 -7 77 -12 100 -7 28 -6 41 1 41 89 7
335 51 364 65 34 17 89 142 106 240 8 46 18 151 22 233 4 91 11 153 18 157 18
12 12 320 -8 396 -20 78 -36 214 -36 307 0 129 -35 313 -85 447 -42 111 -52
130 -104 184 -63 65 -174 152 -261 204 -30 18 -84 52 -120 76 -36 23 -81 50
-100 61 -69 36 -80 48 -86 94 -4 24 -10 46 -15 47 -5 2 -9 13 -9 23 0 12 -4
17 -11 13 -8 -4 -8 0 0 15 7 12 9 26 6 32 -4 5 12 28 34 51 23 22 41 44 41 48
0 5 6 15 13 22 16 18 52 94 67 143 15 53 61 168 72 180 4 5 8 27 8 49 0 21 14
96 31 165 27 112 31 141 29 261 0 74 0 150 0 167 1 18 -6 43 -14 55 -9 12 -16
30 -16 40 0 10 -4 18 -8 18 -5 0 -17 17 -28 38 -40 79 -51 89 -159 141 -48 23
-79 30 -160 35 -93 7 -102 6 -119 -13z m143 -329 c17 -12 42 -22 56 -22 14 0
25 -4 25 -9 0 -4 20 -21 44 -36 41 -26 43 -29 35 -59 -5 -17 -14 -32 -19 -34
-6 -2 -10 -8 -10 -13 0 -6 4 -8 8 -5 14 8 72 -63 65 -79 -3 -8 -17 -16 -32
-16 -72 -4 -86 -3 -92 4 -9 12 -53 -31 -75 -73 -21 -41 -35 -118 -37 -210 -1
-36 -6 -71 -10 -78 -11 -17 -58 -5 -79 21 -10 14 -28 21 -49 22 -19 0 -34 6
-37 14 -3 10 0 12 12 8 9 -4 16 -1 16 6 0 9 2 9 8 -1 5 -7 19 -11 33 -9 17 3
25 12 30 33 3 16 10 38 16 49 14 25 9 214 -5 241 -21 39 -51 55 -117 65 -44 6
-72 15 -80 26 -11 15 -15 15 -29 4 -9 -8 -16 -9 -16 -3 0 6 5 12 11 14 7 2 19
24 29 48 9 25 27 49 39 55 11 5 21 17 21 27 0 30 31 39 122 35 71 -2 93 -7
117 -25z m-249 -267 c25 -14 24 -14 -17 -15 -40 0 -52 8 -36 23 10 10 25 8 53
-8z m-79 -150 c5 -4 34 -7 62 -7 50 1 51 0 27 -13 -14 -8 -42 -14 -62 -15 -26
0 -36 -4 -32 -13 6 -16 39 -14 88 7 42 19 62 12 31 -10 -19 -14 -19 -15 3 -20
30 -8 28 -17 -12 -40 -52 -30 -158 -133 -150 -146 4 -7 3 -8 -4 -4 -7 4 -12 1
-12 -8 0 -22 -20 -20 -21 2 -1 62 -9 106 -20 112 -6 5 -9 15 -6 23 5 14 -17
32 -35 29 -5 -1 -8 3 -8 8 0 6 -7 10 -15 10 -8 0 -15 5 -15 10 0 6 5 10 11 10
6 0 9 7 6 15 -4 8 -2 17 4 20 5 4 6 11 3 17 -4 6 -2 8 3 5 6 -4 24 0 39 8 28
14 91 14 115 0z m-359 -84 c2 -17 1 -28 -4 -25 -8 5 -12 54 -4 54 2 0 6 -13 8
-29z m955 -58 c-3 -10 -5 -4 -5 12 0 17 2 24 5 18 2 -7 2 -21 0 -30z m-910 1
c-3 -3 -12 -4 -19 -1 -8 3 -5 6 6 6 11 1 17 -2 13 -5z m853 -48 c0 -6 -11 -16
-25 -23 -20 -9 -25 -8 -25 3 0 8 5 14 10 14 6 0 10 10 10 21 0 18 2 19 15 9 8
-7 15 -18 15 -24z m-437 4 c7 -26 -9 -37 -68 -44 -33 -4 -43 -3 -30 3 11 5 31
21 44 35 29 31 47 33 54 6z m308 10 c10 -6 19 -21 19 -34 0 -13 7 -29 16 -37
14 -11 14 -13 0 -21 -10 -5 -23 -5 -33 1 -10 6 -14 11 -9 11 6 0 2 6 -7 13
-21 15 -35 77 -18 77 7 0 21 -5 32 -10z m-541 -40 c0 -5 -4 -10 -10 -10 -5 0
-10 5 -10 10 0 6 5 10 10 10 6 0 10 -4 10 -10z m15 -40 c-3 -5 -11 -10 -16
-10 -6 0 -7 5 -4 10 3 6 11 10 16 10 6 0 7 -4 4 -10z m183 -129 c12 -11 22
-23 22 -28 0 -15 -44 -13 -62 3 -9 9 -22 13 -27 9 -15 -9 -14 8 1 23 17 17 39
14 66 -7z m-304 -258 c2 -10 11 -17 20 -16 11 0 15 -4 12 -12 -6 -17 25 -44
44 -38 10 3 11 2 3 -4 -6 -5 -11 -17 -10 -28 2 -16 -4 -20 -28 -18 -29 2 -29
1 -10 -13 18 -14 18 -16 4 -27 -14 -11 -14 -15 1 -42 9 -16 26 -31 38 -33 20
-3 20 -5 7 -41 -7 -21 -11 -50 -8 -64 6 -29 18 -35 26 -14 3 6 4 2 4 -10 -1
-13 -5 -23 -9 -23 -17 0 -6 -17 22 -33 17 -10 30 -25 30 -33 0 -8 4 -13 9 -10
5 3 11 -4 14 -15 4 -14 11 -20 20 -16 16 6 47 -22 47 -41 0 -7 7 -12 16 -12
11 0 15 -6 11 -20 -4 -16 0 -20 21 -21 15 0 21 -3 15 -6 -33 -13 -2 -28 77
-36 8 -1 21 -8 28 -14 21 -20 -32 -107 -113 -185 -105 -103 -145 -115 -220
-68 -56 35 -114 109 -161 208 -51 106 -78 176 -64 167 16 -10 11 12 -6 29 -8
9 -13 20 -9 25 3 5 -4 27 -15 48 -12 24 -23 74 -29 130 -12 110 -10 119 17
138 17 12 23 13 32 3 34 -41 50 -62 51 -67 1 -3 3 -15 5 -26 2 -11 5 -29 8
-40 2 -11 5 -33 5 -49 1 -41 9 -29 15 23 3 25 11 48 17 52 14 8 19 58 7 65
-10 6 -11 188 -1 197 3 4 12 2 18 -3 9 -8 15 -6 19 6 7 19 16 14 20 -13z m66
-173 c0 -5 -5 -10 -11 -10 -5 0 -7 5 -4 10 3 6 8 10 11 10 2 0 4 -4 4 -10z
m-659 -1359 c7 -16 6 -20 -4 -15 -27 15 -37 27 -31 36 9 14 26 4 35 -21z
m-101 -9 c0 -5 16 -25 36 -46 20 -20 32 -41 28 -48 -5 -7 1 -9 19 -6 37 7 110
-67 105 -107 -2 -16 -8 -30 -14 -32 -22 -7 -142 126 -127 141 3 3 -4 6 -16 6
-12 0 -24 7 -27 15 -4 8 -14 15 -24 15 -25 0 -34 42 -13 58 19 14 33 16 33 4z
m-198 -107 c63 -21 116 -75 73 -75 -8 0 -15 -5 -15 -11 0 -6 -6 -9 -14 -6 -13
5 -46 -25 -46 -43 0 -6 -6 -13 -14 -16 -8 -3 -17 -16 -20 -30 -4 -13 -11 -24
-16 -24 -16 0 -11 -40 5 -46 8 -4 15 -12 15 -20 0 -8 7 -14 16 -14 9 0 27 -9
40 -19 19 -15 31 -18 54 -11 17 5 43 5 60 0 18 -5 32 -5 36 1 6 11 72 7 92 -5
6 -4 17 -4 22 -1 6 3 10 -1 10 -9 0 -12 11 -15 50 -12 40 2 50 0 45 -11 -3
-10 1 -13 13 -10 60 17 72 17 72 2 0 -11 10 -15 36 -15 24 0 33 4 28 12 -4 7
-3 8 4 4 7 -4 9 -18 6 -31 -5 -21 -3 -23 18 -18 12 3 29 13 36 22 12 15 14 15
23 -2 9 -16 12 -16 26 -2 9 9 22 14 29 11 8 -3 14 -1 14 5 0 6 6 9 13 6 6 -2
11 -11 9 -20 -2 -11 3 -14 19 -10 14 4 19 11 16 24 -3 11 -2 19 3 19 4 0 11
-12 15 -27 4 -16 10 -22 12 -15 3 6 11 12 18 12 7 0 15 6 18 13 3 9 8 9 21 -3
16 -12 19 -12 28 3 5 10 13 15 19 12 5 -4 9 -1 9 4 0 6 10 11 23 10 12 0 16
-3 9 -6 -10 -4 -7 -9 10 -17 14 -8 22 -19 20 -32 -2 -16 -1 -16 7 -4 6 8 8 23
5 33 -7 22 15 22 32 0 12 -17 13 -16 14 5 0 27 24 39 45 22 18 -15 45 3 45 30
0 13 6 16 28 12 15 -2 33 -9 40 -15 9 -7 12 -4 12 12 0 18 4 20 28 15 21 -4
24 -3 12 5 -12 9 -6 10 23 7 20 -3 37 0 37 5 0 5 9 9 19 9 10 0 21 7 25 15 6
18 36 20 36 3 0 -9 3 -9 11 -1 8 8 20 6 42 -8 31 -18 32 -18 53 1 19 19 55 22
70 7 13 -13 20 -7 43 33 19 34 25 39 42 30 18 -10 23 -6 20 13 0 4 3 7 9 7 5
0 10 -6 10 -14 0 -8 7 -17 16 -20 12 -5 14 -1 9 15 -6 19 -5 19 17 7 33 -19
40 -31 22 -45 -14 -10 -14 -14 0 -40 13 -27 13 -32 -2 -54 -9 -13 -29 -37 -44
-51 -17 -16 -28 -38 -28 -54 0 -23 -2 -25 -15 -14 -21 18 -31 5 -12 -15 18
-18 11 -49 -9 -41 -8 3 -14 2 -14 -3 0 -5 -18 -13 -40 -19 -22 -5 -40 -6 -40
-2 0 13 -93 -2 -119 -19 -15 -9 -52 -16 -100 -18 -42 -1 -98 -4 -126 -7 -31
-2 -53 1 -57 8 -5 7 -8 5 -8 -6 0 -20 -30 -25 -30 -5 0 8 -3 7 -10 -3 -7 -12
-11 -10 -19 10 -8 22 -10 22 -11 5 0 -15 -2 -17 -9 -7 -4 8 -12 14 -17 14 -15
0 -31 12 -36 28 -4 10 -8 7 -13 -12 -6 -25 -41 -45 -47 -27 -3 9 -105 -17
-123 -31 -5 -5 -28 -7 -50 -6 -54 3 -108 -12 -98 -27 4 -7 0 -7 -10 2 -9 7
-15 17 -12 21 3 4 -12 -1 -32 -11 -43 -22 -69 -24 -76 -6 -3 9 -8 9 -16 1 -7
-6 -23 -9 -37 -6 -20 4 -23 7 -12 14 10 7 8 8 -5 4 -10 -3 -23 -6 -28 -6 -5 0
-9 -7 -9 -15 0 -20 -79 -43 -89 -26 -6 9 -13 10 -27 2 -27 -14 -137 -45 -149
-41 -12 4 -30 3 -75 -4 -128 -18 -157 -17 -193 4 -20 12 -45 37 -56 56 -12 20
-26 32 -32 28 -8 -4 -9 3 -4 24 4 18 1 38 -7 51 -11 18 -9 23 10 41 l23 21 30
-25 c17 -15 43 -26 59 -26 16 0 31 -4 34 -9 8 -13 44 -2 50 16 8 19 -1 33 -17
27 -7 -2 -23 5 -35 16 -12 12 -27 18 -32 15 -6 -3 -10 -1 -10 6 0 7 -12 25
-26 40 -30 31 -47 101 -30 119 8 8 7 10 -5 5 -22 -8 -34 12 -19 30 6 8 9 24 5
35 -6 19 -8 20 -19 5 -11 -15 -13 -15 -25 -1 -10 12 -11 23 -3 45 7 20 7 31 1
33 -14 5 -22 160 -9 168 15 9 168 -14 232 -35z m182 -33 c5 -23 13 -42 17 -42
5 0 9 -4 9 -10 0 -15 -16 -12 -34 5 -8 8 -22 15 -31 15 -24 0 -29 27 -10 56
22 34 38 26 49 -24z m220 22 c5 -14 4 -15 -9 -4 -17 14 -19 20 -6 20 5 0 12
-7 15 -16z m-90 -196 c-9 -14 -26 -9 -58 20 -36 32 -44 62 -15 57 11 -2 19 2
19 8 0 7 13 -8 29 -32 17 -25 28 -48 25 -53z m-131 15 c-3 -6 -11 -9 -19 -6
-20 7 -17 19 5 19 11 0 17 -6 14 -13z m2007 -43 c0 -5 10 -10 23 -11 21 0 21
-1 2 -9 -17 -7 -17 -9 -2 -9 9 -1 17 -6 17 -12 0 -5 -4 -7 -10 -4 -20 12 -29
-5 -19 -38 6 -20 5 -33 0 -35 -6 -2 -8 -9 -5 -16 3 -8 -2 -16 -10 -19 -10 -4
-13 -13 -9 -23 4 -12 3 -15 -5 -10 -7 4 -12 14 -12 22 0 8 -4 14 -10 14 -5 0
-10 -9 -10 -20 0 -32 -13 -23 -38 26 -13 25 -18 43 -13 39 6 -3 11 2 11 13 0
16 -9 20 -47 25 -27 3 -50 11 -55 21 -5 9 -15 16 -23 16 -17 0 -28 17 -20 30
4 6 55 10 121 10 69 0 114 -4 114 -10z m-73 -207 c21 -16 9 -45 -14 -36 -17 6
-17 5 0 -14 9 -11 17 -23 17 -26 0 -12 -35 -8 -48 5 -7 7 -13 8 -13 2 -1 -5
-2 -16 -3 -24 0 -8 -7 -14 -13 -12 -7 1 -18 3 -25 5 -38 8 -65 68 -41 92 20
20 34 19 26 -2 -3 -10 7 -4 23 14 33 35 67 47 72 23 2 -8 11 -20 19 -27z
m-153 -79 c17 -6 23 -44 7 -44 -5 0 -16 11 -25 25 -16 25 -11 30 18 19z m-74
-24 c0 -5 -4 -10 -10 -10 -5 0 -10 5 -10 10 0 6 5 10 10 10 6 0 10 -4 10 -10z
m-60 -33 c0 -5 -4 -5 -10 -2 -5 3 -10 14 -10 23 0 15 2 15 10 2 5 -8 10 -19
10 -23z m95 -25 c-8 -9 -35 20 -28 31 4 6 11 3 19 -8 8 -10 12 -21 9 -23z
m-698 -122 c13 0 23 6 24 13 0 9 2 9 6 -1 3 -7 16 -17 29 -22 31 -12 30 -22
-3 -37 -33 -16 -46 -16 -37 -2 4 7 0 9 -14 5 -14 -5 -24 -1 -32 11 -10 17 -10
17 -8 -1 4 -25 -28 -30 -51 -7 -17 17 -19 17 -30 0 -14 -23 -31 -25 -31 -3 0
8 16 22 36 30 33 14 37 14 51 -3 14 -17 14 -17 9 0 -8 25 3 42 17 28 6 -6 21
-11 34 -11z m113 5 c0 -8 7 -15 15 -15 20 0 19 -16 0 -24 -11 -4 -19 3 -25 20
-12 32 -12 34 0 34 6 0 10 -7 10 -15z m145 4 c12 -19 -5 -23 -22 -6 -16 16
-16 17 -1 17 9 0 20 -5 23 -11z m-85 -29 c0 -5 -4 -10 -10 -10 -5 0 -10 5 -10
10 0 6 5 10 10 10 6 0 10 -4 10 -10z m-340 -35 c0 -9 -9 -15 -24 -15 -13 0
-31 -3 -40 -6 -9 -3 -16 -2 -16 3 0 5 15 14 33 20 46 15 47 15 47 -2z"/>
<path d="M2990 3730 c0 -5 5 -10 11 -10 5 0 7 5 4 10 -3 6 -8 10 -11 10 -2 0
-4 -4 -4 -10z"/>
<path d="M2235 2350 c3 -5 8 -10 11 -10 2 0 4 5 4 10 0 6 -5 10 -11 10 -5 0
-7 -4 -4 -10z"/>
<path d="M2820 940 c0 -5 5 -10 10 -10 6 0 10 5 10 10 0 6 -4 10 -10 10 -5 0
-10 -4 -10 -10z"/>
<path d="M3135 921 c-6 -11 9 -23 19 -14 9 9 7 23 -3 23 -6 0 -12 -4 -16 -9z"/>
<path d="M1951 804 c0 -11 3 -14 6 -6 3 7 2 16 -1 19 -3 4 -6 -2 -5 -13z"/>
<path d="M2967 750 c6 -22 18 -26 29 -9 3 6 0 15 -7 20 -22 14 -28 11 -22 -11z"/>
<path d="M1475 720 c-3 -5 -1 -10 4 -10 6 0 11 5 11 10 0 6 -2 10 -4 10 -3 0
-8 -4 -11 -10z"/>
<path d="M1805 580 c-3 -5 -2 -10 4 -10 5 0 13 5 16 10 3 6 2 10 -4 10 -5 0
-13 -4 -16 -10z"/>
<path d="M864 2500 c-122 -61 -184 -115 -275 -236 -176 -237 -229 -410 -254
-834 -11 -181 -19 -251 -35 -305 -49 -163 -93 -412 -92 -525 0 -99 13 -139 74
-238 44 -70 45 -72 36 -129 -5 -32 -11 -97 -14 -145 l-5 -88 71 0 c70 0 72 1
66 22 -4 13 -13 55 -21 93 -9 39 -21 93 -29 120 -9 34 -10 51 -3 54 6 2 20 15
32 28 39 46 189 45 288 -2 21 -10 51 -34 67 -53 29 -35 29 -35 10 -61 -10 -14
-27 -35 -37 -46 -30 -33 -63 -101 -63 -129 l0 -26 145 0 145 0 0 1275 c0 701
-1 1275 -3 1275 -2 0 -48 -22 -103 -50z"/>
<path d="M4020 1161 l0 -1161 304 0 c218 0 307 3 312 11 28 46 5 427 -40 659
-14 69 -29 202 -36 295 -18 290 -46 498 -85 650 -35 138 -113 336 -163 415
-36 57 -174 200 -249 259 l-43 33 0 -1161z"/>
</g>
</svg>
